<?xml version="1.0" encoding="UTF-8"?>
<!DOCTYPE svg PUBLIC "-//W3C//DTD SVG 1.1//EN" "http://www.w3.org/Graphics/SVG/1.1/DTD/svg11.dtd">
<!-- Creator: CorelDRAW 2019 (64-Bit) -->
<svg xmlns="http://www.w3.org/2000/svg" xml:space="preserve" width="3765px" height="1080px" version="1.1" style="shape-rendering:geometricPrecision; text-rendering:geometricPrecision; image-rendering:optimizeQuality; fill-rule:evenodd; clip-rule:evenodd"
viewBox="0 0 3765 1080.07"
 xmlns:xlink="http://www.w3.org/1999/xlink"
 xmlns:xodm="http://www.corel.com/coreldraw/odm/2003">
 <defs>
  <style type="text/css">
   <![CDATA[
    .fil0 {fill:#0061AE;fill-rule:nonzero}
    .fil1 {fill:url(#id0)}
   ]]>
  </style>
  <linearGradient id="id0" gradientUnits="userSpaceOnUse" x1="1602.7" y1="664.67" x2="3619.31" y2="-169.92">
   <stop offset="0" style="stop-opacity:1; stop-color:#F6AD02"/>
   <stop offset="0.2" style="stop-opacity:1; stop-color:#FFF000"/>
   <stop offset="0.411765" style="stop-opacity:1; stop-color:#F6AD02"/>
   <stop offset="0.658824" style="stop-opacity:1; stop-color:#FFF000"/>
   <stop offset="0.788235" style="stop-opacity:1; stop-color:#F6AD02"/>
   <stop offset="1" style="stop-opacity:1; stop-color:#FFF000"/>
  </linearGradient>
 </defs>
 <g id="Layer_x0020_1">
  <metadata id="CorelCorpID_0Corel-Layer"/>
  <path class="fil0" d="M2793.67 615.6l131.26 0 0 451.36 -131.26 0 0 -451.36zm-323.06 451.36l0 -311.24c0,-25.48 -0.45,-49.9 -1.35,-73.42 -0.89,-23.39 -2.09,-45.56 -3.9,-66.7l120.34 0 4.79 80.78c11.39,-27.72 29.67,-48.7 54.7,-62.94 24.87,-14.23 56.03,-21.27 93.2,-21.27l3.9 0 -0.45 118.53c-7.94,-0.61 -13.79,-1.05 -17.69,-1.35 -4.05,-0.31 -7.63,-0.46 -10.79,-0.46 -34.31,0 -61.13,8.39 -80.46,25.04 -19.49,16.63 -29.22,39.85 -29.22,69.37l0 243.66 -133.07 0zm-198.47 -451.36l131.27 0 0 451.36 -131.27 0 0 -451.36zm-212.71 451.36l-4.34 -64.43c-16.18,24.27 -35.66,42.56 -58.44,54.85 -22.77,12.28 -48.55,18.44 -77.33,18.44 -54.68,0 -99.04,-21.44 -133.21,-64.3 -34.02,-42.86 -51.09,-99.65 -51.09,-170.08 0,-70.88 16.63,-127.68 50.05,-170.24 33.41,-42.55 77.61,-63.83 132.61,-63.83 29.82,0 55.9,5.84 78.07,17.38 22.33,11.54 41.51,29.22 57.55,52.89l0 -258.19 130.37 0 0 556.71c0,22.78 0.3,41.35 1.04,55.44 0.75,14.23 1.95,26.08 3.3,35.36l-128.58 0zm-191.35 -224.78c0,46.61 8.09,82.73 24.12,108.35 16.04,25.63 38.67,38.36 67.59,38.36 29.51,0 53.05,-13.04 70.28,-39.26 17.23,-26.22 25.92,-62.04 25.92,-107.45 0,-45.55 -8.69,-81.66 -25.92,-107.89 -17.23,-26.37 -40.77,-39.56 -70.28,-39.56 -28.92,0 -51.55,12.88 -67.59,38.82 -16.03,25.92 -24.12,62.18 -24.12,108.63zm-620.36 224.78l0 -364.74c0,-12.88 -0.3,-26.37 -1.05,-40.46 -0.74,-14.08 -1.94,-29.51 -3.29,-46.16l124.97 0 2.7 67.74c16.93,-27.27 37.16,-47.21 60.4,-59.79 23.22,-12.58 51.69,-18.88 85.41,-18.88 49.74,0 86.6,14.09 110.73,42.41 24.13,28.16 36.27,71.32 36.27,129.31l0 290.57 -129.03 0 0 -272.57c0,-33.72 -5.84,-57.85 -17.38,-72.53 -11.53,-14.54 -30.27,-21.88 -56.34,-21.88 -25.17,0 -45.55,8.09 -60.84,24.42 -15.44,16.19 -23.08,37.77 -23.08,64.74l0 277.82 -129.47 0zm-1244.27 0l0 -364.74c0,-16.19 -0.31,-31.32 -0.9,-45.55 -0.61,-14.24 -1.5,-27.88 -2.55,-41.07l124.22 0 3.45 67.74c16.93,-27.27 37.01,-47.21 60.39,-59.79 23.23,-12.58 51.7,-18.88 85.27,-18.88 34.01,0 62.63,7.5 86.16,22.63 23.37,15.13 40.46,37 51.25,65.64 14.69,-30.43 33.86,-52.76 57.53,-66.99 23.69,-14.24 53.65,-21.28 90.07,-21.28 49.75,0 86.77,14.09 111.04,42.41 24.28,28.16 36.41,71.32 36.41,129.31l0 290.57 -130.37 0 0 -272.57c0,-33.72 -5.84,-57.85 -17.38,-72.53 -11.55,-14.54 -30.27,-21.88 -56.34,-21.88 -25.17,0 -45.4,8.09 -60.4,24.42 -15.13,16.19 -22.62,37.77 -22.62,64.74l0 277.82 -130.37 0 0 -272.57c0,-33.42 -5.69,-57.4 -17.09,-72.24 -11.38,-14.83 -29.81,-22.17 -55.29,-22.17 -25.17,0 -45.1,8.09 -59.93,24.13 -14.84,16.18 -22.19,37.76 -22.19,65.03l0 277.82 -130.36 0zm1055.06 -47.15c-26.28,22.98 -77.74,47.62 -113.1,55.56 -13.57,3.18 -28.36,4.7 -44.35,4.7 -37.93,0 -69.67,-13.38 -95.24,-39.98 -25.57,-26.75 -38.3,-60.8 -38.3,-102.17 0,-33.23 6.55,-60.24 19.51,-81.2 13.09,-21.09 31.51,-37.64 55.38,-49.76 23.62,-12 53.07,-20.69 88.1,-25.79 35.02,-5.1 71.36,-8.96 108.93,-11.3l0 -2.48c0,-107.94 -153.94,-94.5 -219.77,-48.37l-22.78 -85.03c51.44,-24.15 102.07,-36.42 164.99,-36.42 110.36,0 203.58,52.91 203.58,179.38l0 290.98 -106.95 0 0 -48.12zm-10.33 -88.05l0 -87.03c-19.88,1.92 -41.59,4.46 -64.84,7.66 -23.23,3.34 -40.88,7.17 -52.92,11.47 -14.7,5.25 -26.04,13.07 -33.74,23.1 -7.85,10.19 -11.77,23.42 -11.77,39.98 0,114.31 133.49,77.21 163.27,4.82z"/>
  <path class="fil1" d="M1457 328.09c40.28,45 115.21,167.03 203.93,159.49 207.84,-17.66 326.21,-242.42 582.82,-226.38 105.41,6.59 155.05,183.4 259.58,198.63 164.76,24.01 322.61,-229.33 591.14,-214.79 110.39,5.97 156.01,191.45 266.05,202.16 102.59,9.98 263.26,-135.45 404.48,-210.84 -35.95,-60.56 -102.77,-155.13 -173.9,-159.91 -140.02,-9.42 -252.04,169.47 -375.2,138.24 -71.68,-18.17 -153.32,-215.08 -271.4,-214.69 -218.58,0.72 -369.43,217.14 -562.68,234.24 -109.66,9.7 -162.38,-234.21 -309.24,-211.79 -200.98,30.69 -406.37,196.29 -615.58,305.64z"/>
 </g>
</svg>
