<?xml version="1.0" encoding="UTF-8" standalone="no"?>
<!-- Creator: CorelDRAW X7 -->

<svg
   xml:space="preserve"
   width="1.803939in"
   height="1.7409412in"
   version="1.1"
   style="clip-rule:evenodd;fill-rule:evenodd;image-rendering:optimizeQuality;shape-rendering:geometricPrecision;text-rendering:geometricPrecision"
   viewBox="0 0 1804 1740.8581"
   inkscape:version="1.4.2 (f4327f4, 2025-05-13)"
   sodipodi:docname="Logo GoPay  -  (Koleksilogo.com).svg"
   id="svg20"
   xmlns:inkscape="http://www.inkscape.org/namespaces/inkscape"
   xmlns:sodipodi="http://sodipodi.sourceforge.net/DTD/sodipodi-0.dtd"
   xmlns="http://www.w3.org/2000/svg"
   xmlns:svg="http://www.w3.org/2000/svg">
 <defs
   id="defs1">
  <style
   type="text/css"
   id="style1">
   <![CDATA[
    .fil3 {fill:white}
    .fil4 {fill:black;fill-rule:nonzero}
    .fil0 {fill:#00AA11;fill-rule:nonzero}
    .fil2 {fill:#00AED6;fill-rule:nonzero}
    .fil1 {fill:black;fill-rule:nonzero}
   ]]>
  </style>
 </defs>
 <g
   id="Layer_x0020_1"
   inkscape:label="Layer 1"
   inkscape:groupmode="layer"
   transform="translate(0,-0.0709763)">
  <metadata
   id="CorelCorpID_0Corel-Layer" />
  <sodipodi:namedview
   id="base"
   pagecolor="#ffffff"
   bordercolor="#666666"
   borderopacity="1.0"
   inkscape:pageopacity="0.0"
   inkscape:pageshadow="2"
   inkscape:zoom="1.1872893"
   inkscape:cx="372.69771"
   inkscape:cy="174.76785"
   inkscape:document-units="px"
   inkscape:current-layer="Layer_x0020_1"
   showgrid="false"
   fit-margin-top="0"
   fit-margin-left="0"
   fit-margin-right="0"
   fit-margin-bottom="0"
   units="px"
   inkscape:window-width="1920"
   inkscape:window-height="1001"
   inkscape:window-x="-9"
   inkscape:window-y="-9"
   inkscape:window-maximized="1"
   inkscape:showpageshadow="2"
   inkscape:pagecheckerboard="0"
   inkscape:deskcolor="#d1d1d1" />
  
  
  
  
  
  
  
  
  
  
  
  
  
  
  
  
  <path
   class="fil2"
   d="m 902,0 c 498,0 902,390 902,870 0,481 -404,871 -902,871 C 404,1741 0,1351 0,870 0,390 404,0 902,0 Z"
   id="path15" />
  <path
   class="fil3"
   d="M 1428,844 C 1421,733 1324,648 1209,653 H 639 c -21,0 -38,-16 -38,-36 0,-20 17,-37 38,-37 h 577 c -3,-75 -56,-139 -131,-159 -169,-29 -341,-29 -509,0 -96,22 -167,99 -181,193 -26,171 -26,345 0,515 21,100 103,177 206,194 209,26 420,26 629,0 93,-18 163,-92 174,-183 19,-97 27,-197 24,-296 z m -188,122 v 0 31 c 0,20 -17,37 -37,37 -21,0 -38,-17 -38,-37 v -31 c -12,-11 -19,-26 -19,-41 0,-30 26,-55 57,-55 31,0 56,25 56,55 0,15 -7,30 -19,41 z"
   id="path16" />
  
  
  
  
  
 </g>
</svg>
