<?xml version="1.0" encoding="UTF-8"?>
<svg version="1.1" xmlns="http://www.w3.org/2000/svg" width="578" height="432">
<path d="M0 0 C8.11472226 10.31679433 14 24.79307571 14 38 C14.58052816 37.99815641 15.16105633 37.99631283 15.75917625 37.99441338 C29.87159853 37.95028335 43.98401048 37.91716735 58.09648705 37.89637566 C64.9211207 37.88605422 71.74570836 37.8719774 78.5703125 37.84912109 C85.15143356 37.82709071 91.73251926 37.81544449 98.31367874 37.81024551 C100.8295937 37.80653859 103.34550592 37.79930034 105.8614006 37.78853989 C109.37429298 37.77410737 112.88698529 37.7720186 116.39990234 37.77294922 C117.44934525 37.76575867 118.49878815 37.75856812 119.58003235 37.75115967 C121.01035545 37.75528366 121.01035545 37.75528366 122.46957397 37.75949097 C123.71675988 37.75672559 123.71675988 37.75672559 124.98914146 37.75390434 C127 38 127 38 129 40 C131.37756212 61.86122057 122.02322989 82.99861307 109 100 C107.37313679 101.70554146 105.70757188 103.37526807 104 105 C103.23042969 105.77859375 102.46085938 106.5571875 101.66796875 107.359375 C90.07725055 118.53027191 76.60117094 125.2441277 61 129 C59.85591675 129.27602051 59.85591675 129.27602051 58.6887207 129.55761719 C34.53801533 134.90590327 10.71874021 129.44822352 -10.1796875 116.81640625 C-17.56604817 112.05926261 -23.51389739 106.85169093 -29 100 C-30.04800781 98.77603516 -30.04800781 98.77603516 -31.1171875 97.52734375 C-40.43136244 86.0699417 -48.26836823 70.94619196 -49 56 C-49.05542969 54.92363281 -49.11085937 53.84726563 -49.16796875 52.73828125 C-49.44241191 41.48611189 -48.1195096 32.09285193 -41 23 C-40.34 23 -39.68 23 -39 23 C-38.7525 22.236875 -38.505 21.47375 -38.25 20.6875 C-36.87869328 17.73919055 -35.7648921 16.64165468 -33 15 C-32.34 15 -31.68 15 -31 15 C-30.74710205 14.39172363 -30.4942041 13.78344727 -30.23364258 13.15673828 C-28.82232872 10.68938293 -27.70376794 9.89662277 -25.26171875 8.4921875 C-24.52373047 8.06292969 -23.78574219 7.63367188 -23.02539062 7.19140625 C-22.25388672 6.75699219 -21.48238281 6.32257813 -20.6875 5.875 C-19.92759766 5.43285156 -19.16769531 4.99070312 -18.38476562 4.53515625 C-6.32699551 -2.39989485 -6.32699551 -2.39989485 0 0 Z " fill="#9F7940" transform="translate(265,112)"/>
<path d="M0 0 C8.11472226 10.31679433 14 24.79307571 14 38 C14.58052816 37.99815641 15.16105633 37.99631283 15.75917625 37.99441338 C29.87159853 37.95028335 43.98401048 37.91716735 58.09648705 37.89637566 C64.9211207 37.88605422 71.74570836 37.8719774 78.5703125 37.84912109 C85.15143356 37.82709071 91.73251926 37.81544449 98.31367874 37.81024551 C100.8295937 37.80653859 103.34550592 37.79930034 105.8614006 37.78853989 C109.37429298 37.77410737 112.88698529 37.7720186 116.39990234 37.77294922 C117.44934525 37.76575867 118.49878815 37.75856812 119.58003235 37.75115967 C121.01035545 37.75528366 121.01035545 37.75528366 122.46957397 37.75949097 C123.71675988 37.75672559 123.71675988 37.75672559 124.98914146 37.75390434 C127 38 127 38 129 40 C131.37756212 61.86122057 122.02322989 82.99861307 109 100 C107.37313679 101.70554146 105.70757188 103.37526807 104 105 C103.23042969 105.77859375 102.46085938 106.5571875 101.66796875 107.359375 C90.07725055 118.53027191 76.60117094 125.2441277 61 129 C59.85591675 129.27602051 59.85591675 129.27602051 58.6887207 129.55761719 C34.5425371 134.9049019 10.7287096 129.44986582 -10.16796875 116.82421875 C-16.62684433 112.66381199 -22.19590749 108.78120839 -26 102 C-24.35 102 -22.7 102 -21 102 C-21.33 100.68 -21.66 99.36 -22 98 C-20.515 98.99 -20.515 98.99 -19 100 C-19 100.99 -19 101.98 -19 103 C-17.515 102.690625 -17.515 102.690625 -16 102.375 C-12.40461837 101.84796615 -9.60973018 102.51164716 -6.109375 103.515625 C-0.47617174 104.80917538 5.39447764 104.14985074 11 103 C11.33 104.98 11.66 106.96 12 109 C11.01 109 10.02 109 9 109 C9 109.66 9 110.32 9 111 C8.34 111 7.68 111 7 111 C7 111.99 7 112.98 7 114 C8.49707939 114.63196384 9.99786703 115.25514393 11.5 115.875 C12.3353125 116.22304687 13.170625 116.57109375 14.03125 116.9296875 C31.27396349 123.14613947 54.49288257 122.64385458 71.18798828 114.88964844 C79.71225575 110.70446511 89.86869947 105.62454169 95.62109375 97.79296875 C96.07613281 97.20128906 96.53117188 96.60960937 97 96 C97.66 96 98.32 96 99 96 C99.26167969 95.43539062 99.52335938 94.87078125 99.79296875 94.2890625 C101.10690623 91.79725874 102.64521642 89.64487166 104.3125 87.375 C113.11899827 74.8412701 116.27154049 62.00652732 119 47 C84.02 47 49.04 47 13 47 C12.67 49.97 12.34 52.94 12 56 C10.82063893 59.38302776 9.31297233 62.25258049 7 65 C3.6875 66.0625 3.6875 66.0625 1 66 C-0.42151345 63.15697309 -0.23922606 61.16974528 0 58 C0.49113281 56.96617187 0.98226562 55.93234375 1.48828125 54.8671875 C3.41101082 50.5310496 3.4960677 46.50358401 3.4375 41.8125 C3.43137695 40.97750977 3.42525391 40.14251953 3.41894531 39.28222656 C3.16958057 29.34983718 0.11820437 21.4084786 -5 13 C-5 12.34 -5 11.68 -5 11 C-17.36385105 14.13575932 -26.30349155 22.07555489 -34 32 C-38.43286531 39.55228905 -40.57173227 48.34354138 -38.53271484 56.97900391 C-36.72897567 63.76981777 -34.73013599 70.51911645 -32 77 C-32.66 77 -33.32 77 -34 77 C-35.78808074 83.53939517 -35.78808074 83.53939517 -35.125 90.125 C-34.75375 90.74375 -34.3825 91.3625 -34 92 C-38.44839633 88.34378384 -40.34412558 83.64394832 -42.625 78.5 C-43.02452881 77.60015381 -43.42405762 76.70030762 -43.83569336 75.77319336 C-46.65033459 69.23275536 -48.64937445 63.16277907 -49 56 C-49.05542969 54.92363281 -49.11085937 53.84726563 -49.16796875 52.73828125 C-49.44241191 41.48611189 -48.1195096 32.09285193 -41 23 C-40.34 23 -39.68 23 -39 23 C-38.7525 22.236875 -38.505 21.47375 -38.25 20.6875 C-36.87869328 17.73919055 -35.7648921 16.64165468 -33 15 C-32.34 15 -31.68 15 -31 15 C-30.74710205 14.39172363 -30.4942041 13.78344727 -30.23364258 13.15673828 C-28.82232872 10.68938293 -27.70376794 9.89662277 -25.26171875 8.4921875 C-24.52373047 8.06292969 -23.78574219 7.63367188 -23.02539062 7.19140625 C-22.25388672 6.75699219 -21.48238281 6.32257813 -20.6875 5.875 C-19.92759766 5.43285156 -19.16769531 4.99070312 -18.38476562 4.53515625 C-6.32699551 -2.39989485 -6.32699551 -2.39989485 0 0 Z " fill="#62504A" transform="translate(265,112)"/>
<path d="M0 0 C6.13400703 -0.07501608 12.26773805 -0.12900518 18.40209961 -0.16479492 C20.48222515 -0.17973905 22.56231998 -0.20010177 24.64233398 -0.22631836 C39.81906444 -0.41260314 54.45786564 -0.20852899 68.5625 6.1875 C69.56506836 6.63923584 69.56506836 6.63923584 70.58789062 7.10009766 C75.92617724 9.66516282 79.86385285 12.35295753 82 18 C83.62337349 25.1055856 81.0738993 32.61831777 78 39 C67.18977637 54.93576069 49.19747974 62.3849302 31 66 C30.26491211 66.17490967 29.52982422 66.34981934 28.77246094 66.5300293 C25.38579041 67.10411707 22.16573408 67.11179314 18.73046875 67.09765625 C18.04946609 67.0962413 17.36846344 67.09482635 16.66682434 67.09336853 C14.50700353 67.08780298 12.34728911 67.07525703 10.1875 67.0625 C8.71679838 67.05748054 7.24609512 67.05291841 5.77539062 67.04882812 C2.1835596 67.03784488 -1.4082098 67.02060422 -5 67 C-1.97387249 63.91840185 0.80640811 61.3059669 4.5 59.0625 C9.1775503 56.0170165 13.04236004 53.11232988 14.75 47.5625 C13.50097995 43.29501484 10.2633887 40.87784066 7 38 C6.236875 37.278125 5.47375 36.55625 4.6875 35.8125 C-0.88576983 32.05378313 -7.30851411 29.70436694 -14 29 C-13.66861351 26.01752158 -13.03399322 25.03205075 -10.8125 22.9375 C-5.60495834 18.01758419 -2.39130172 11.23115771 -0.91674805 4.30566406 C-0.74314255 3.49840881 -0.56953705 2.69115356 -0.39067078 1.85943604 C-0.26174942 1.24582214 -0.13282806 0.63220825 0 0 Z " fill="#F8BB1E" transform="translate(278,159)"/>
<path d="M0 0 C1.258125 -0.02578125 2.51625 -0.0515625 3.8125 -0.078125 C4.864375 0.03015625 5.91625 0.1384375 7 0.25 C9.30394203 3.70591304 9.21366905 5.46126932 8.67578125 9.4921875 C7.87133607 12.77506785 6.59551448 15.6148203 5.1875 18.6875 C2.6281475 24.34274397 0.94088545 29.81115002 -0.375 35.875 C-0.62600464 37.03020142 -0.62600464 37.03020142 -0.88208008 38.20874023 C-1.58971953 41.64720562 -2 44.72534902 -2 48.25 C0.44393443 44.83734306 2.88520179 41.42286533 5.3203125 38.00390625 C6.90865131 35.77427424 8.5066327 33.55361372 10.1171875 31.33984375 C13.4317386 26.73788118 15.88169023 22.49533847 18 17.25 C20.16215299 13.6689341 21.50881278 11.57745815 25 9.25 C27.76020996 8.87832816 30.18852476 9.07149364 33 9.25 C35 11.25 35 11.25 35.1953125 15.11376953 C35.18140675 16.78689023 35.15723109 18.45994448 35.125 20.1328125 C35.11742676 21.02104706 35.10985352 21.90928162 35.10205078 22.82443237 C35.0693601 26.629603 35.01346998 30.43434641 34.95898438 34.23925781 C34.92258358 37.01625544 34.89852627 39.79318053 34.875 42.5703125 C34.85840332 43.41957306 34.84180664 44.26883362 34.82470703 45.14382935 C34.78082103 50.54976865 35.55710753 55.0425843 37 60.25 C37.25 64.125 37.25 64.125 37 67.25 C33.82785104 70.42214896 30.25461595 70.31691017 25.9375 70.4375 C22.30123352 70.26434445 20.91406507 70.17461026 18 68.25 C14.7525179 63.13468506 13.27874411 57.11091051 12 51.25 C11.61328125 51.84167969 11.2265625 52.43335938 10.828125 53.04296875 C4.89655172 62.04310345 4.89655172 62.04310345 2 65.25 C1.34 65.25 0.68 65.25 0 65.25 C-0.33 66.24 -0.66 67.23 -1 68.25 C-6.43408526 71.48074317 -11.82498964 71.6164622 -17.828125 70.125 C-21.70289242 68.56394262 -23.20922376 65.83155248 -25 62.25 C-26.17316722 50.19989668 -23.53272368 39.67980443 -20 28.25 C-19.75411133 27.43966309 -19.50822266 26.62932617 -19.25488281 25.79443359 C-13.61744823 7.38986776 -13.61744823 7.38986776 -9 1.25 C-6.03144127 -0.23427936 -3.30088341 0.04058463 0 0 Z " fill="#61514F" transform="translate(327,261.75)"/>
<path d="M0 0 C1.61648438 0.01353516 1.61648438 0.01353516 3.265625 0.02734375 C4.08546875 0.03894531 4.9053125 0.05054688 5.75 0.0625 C6.245 2.5375 6.245 2.5375 6.75 5.0625 C3.55068072 8.15149793 0.59550071 9.54097477 -3.5625 10.875 C-11.74787015 13.70627877 -16.81042434 18.71023123 -21.33984375 25.97265625 C-23.55236142 31.05290069 -23.43233978 36.54564899 -23.4375 42 C-23.45586914 43.01610352 -23.45586914 43.01610352 -23.47460938 44.05273438 C-23.48800822 48.71106698 -22.89363086 52.69950644 -21.25 57.0625 C-17.76195905 59.38786063 -16.34859246 59.39707898 -12.25 59.0625 C-8.66766922 57.72350748 -7.16964457 55.93472126 -5.125 52.75 C-4.62742187 51.99074219 -4.12984375 51.23148437 -3.6171875 50.44921875 C-0.50603523 45.01803578 0.87841497 40.2734452 -0.25 34.0625 C-1.68207602 30.90625313 -3.27340293 27.94122565 -5.03515625 24.95703125 C-6.52637453 21.40399991 -6.43679063 19.70693621 -5.25 16.0625 C-2.26774158 12.52555456 1.48787719 9.6873521 5.984375 8.4453125 C8.0625 8.3125 8.0625 8.3125 11.75 9.0625 C15.2919161 12.33196101 16.48453229 15.34263212 16.94287109 20.03857422 C17.51621897 34.83094946 15.96589534 48.41279478 5.75 60.0625 C-1.65298106 67.46548106 -9.28962529 70.95270545 -19.75 71.4375 C-27.0880833 71.14714419 -35.07630652 69.54052839 -40.25 64.0625 C-46.00360557 57.02666233 -47.1112853 51.14729012 -46.25 42.0625 C-45.24846724 38.23280478 -43.84095233 34.68233232 -42.25 31.0625 C-41.97285156 30.37542969 -41.69570312 29.68835938 -41.41015625 28.98046875 C-35.70876358 16.08008257 -25.00214314 7.19717329 -12.2578125 1.7890625 C-8.04743165 0.26546165 -4.49794951 -0.04889076 0 0 Z " fill="#635351" transform="translate(283.25,261.9375)"/>
<path d="M0 0 C0.93392578 -0.02449219 1.86785156 -0.04898437 2.83007812 -0.07421875 C10.18113826 -0.10482691 17.47653276 1.05649862 23.13354492 6.11523438 C27.8150235 11.2284534 29.67638837 15.99178008 29.50390625 22.9140625 C28.92343424 27.42884479 27.18071604 31.31644497 25.1875 35.375 C24.836875 36.10074219 24.48625 36.82648438 24.125 37.57421875 C20.24781069 44.64201177 13.74466748 48.83635587 6.1875 51.375 C3.80078125 51.5703125 3.80078125 51.5703125 1.5 51.5 C0.73300781 51.48195313 -0.03398437 51.46390625 -0.82421875 51.4453125 C-1.48035156 51.42210937 -2.13648438 51.39890625 -2.8125 51.375 C-3.4725 51.375 -4.1325 51.375 -4.8125 51.375 C-5.17601562 52.33921875 -5.53953125 53.3034375 -5.9140625 54.296875 C-6.42088272 55.57331111 -6.92875119 56.84933134 -7.4375 58.125 C-7.67339844 58.75921875 -7.90929687 59.3934375 -8.15234375 60.046875 C-10.09833214 64.83700027 -12.22019606 67.05611385 -16.8125 69.375 C-19.8046875 69.984375 -19.8046875 69.984375 -22.6875 70.125 C-23.65429688 70.18171875 -24.62109375 70.2384375 -25.6171875 70.296875 C-26.34164063 70.32265625 -27.06609375 70.3484375 -27.8125 70.375 C-30.45042411 66.41811383 -29.68342855 63.80816907 -28.8125 59.375 C-26.85673646 50.37086784 -24.30028475 41.47251164 -20.81640625 32.93359375 C-19.6475246 29.95453741 -18.72935618 26.94073784 -17.8125 23.875 C-16.64025481 19.95530514 -15.39045204 16.1508138 -13.8125 12.375 C-16.4525 12.705 -19.0925 13.035 -21.8125 13.375 C-22.625 11.25 -22.625 11.25 -22.8125 8.375 C-20.01224456 3.9120929 -18.17404716 2.08345423 -12.93994141 0.74780273 C-8.64591586 -0.00466192 -4.34857769 0.00592853 0 0 Z M5.1875 16.375 C-0.60169469 29.45916002 -0.60169469 29.45916002 -2.8125 43.375 C2.36699997 41.64850001 4.93279592 39.25705612 7.9375 34.75 C9.61897034 30.21003009 9.8012064 26.16509803 9.1875 21.375 C7.94701748 18.32085844 7.94701748 18.32085844 6.1875 16.375 C5.8575 16.375 5.5275 16.375 5.1875 16.375 Z " fill="#61514F" transform="translate(395.8125,261.625)"/>
<path d="M0 0 C2.89733272 2.35829407 4.51449944 3.90608891 5.0234375 7.67578125 C5.10681278 13.70381425 4.97504305 17.57014595 0.6875 22.1875 C-1.50784019 24.10842267 -3.65873543 25.9498975 -6.3125 27.1875 C-7.3025 26.8575 -8.2925 26.5275 -9.3125 26.1875 C-9.36148438 25.47464844 -9.41046875 24.76179688 -9.4609375 24.02734375 C-9.89378523 18.48241509 -10.55278816 13.46663551 -12.3125 8.1875 C-12.9725 8.1875 -13.6325 8.1875 -14.3125 8.1875 C-15.50364233 11.90981978 -15.64752383 15.30122361 -15.3125 19.1875 C-13.12659892 23.39115592 -10.56089882 25.80344216 -6.90234375 28.7265625 C-2.29734793 32.95818028 0.85948867 37.96360016 1.75 44.1875 C2.0487085 51.32331406 -0.29479082 57.98118342 -4.6796875 63.61328125 C-9.26408273 68.03316469 -14.97431008 70.45055796 -21.3125 70.75 C-30.63878722 70.16619485 -37.34345904 66.3035452 -43.63671875 59.49609375 C-45.3125 57.1875 -45.3125 57.1875 -46.25 53.4375 C-44.98430006 49.04974022 -43.08196956 47.67677235 -39.3125 45.1875 C-36.55009095 43.70523173 -34.95999354 43.16401049 -31.8359375 43.27734375 C-29.3125 44.1875 -29.3125 44.1875 -27.73046875 46.83984375 C-27.32441406 47.92394531 -26.91835937 49.00804687 -26.5 50.125 C-26.08105469 51.20652344 -25.66210938 52.28804688 -25.23046875 53.40234375 C-24.3125 56.1875 -24.3125 56.1875 -24.3125 58.1875 C-22.6625 58.1875 -21.0125 58.1875 -19.3125 58.1875 C-18.32986755 55.23960265 -18.01901202 53.03971377 -19.04296875 50.06640625 C-21.89461817 44.45070075 -25.64688142 40.75109086 -30.51953125 36.81640625 C-31.11121094 36.27886719 -31.70289063 35.74132812 -32.3125 35.1875 C-32.3125 34.5275 -32.3125 33.8675 -32.3125 33.1875 C-32.93125 32.960625 -33.55 32.73375 -34.1875 32.5 C-37.00341849 30.76075623 -37.30296749 29.304653 -38.3125 26.1875 C-39.09228681 20.12148398 -38.88138795 14.40762294 -35.77734375 9.0390625 C-27.81043371 -1.03111178 -11.93171444 -6.56999466 0 0 Z " fill="#625250" transform="translate(230.3125,263.8125)"/>
<path d="M0 0 C2.64839885 -0.37040543 4.97214989 -0.52220203 7.625 -0.5 C8.38047119 -0.49645508 9.13594238 -0.49291016 9.91430664 -0.48925781 C18.16909156 -0.25230299 25.33152849 2.12222568 33 5 C33.88945312 5.28746094 34.77890625 5.57492188 35.6953125 5.87109375 C50.96257134 11.1365345 66.68393327 24.02745657 76 37 C76 37.66 76 38.32 76 39 C77.19625 39.0825 78.3925 39.165 79.625 39.25 C85.81501917 40.0264865 89.88836405 43.49409759 94 48 C98.44200459 55.60289196 101.05691582 63.33629541 99.4375 72.125 C98.13871243 76.56400683 95.45213844 79.96949679 92 83 C87.07998461 84.64000513 82.7505527 84.64306018 77.9375 82.875 C76.968125 82.25625 75.99875 81.6375 75 81 C74.4225 80.63261719 73.845 80.26523438 73.25 79.88671875 C67.4008723 75.61332588 64.87263059 69.87463496 63 63 C62.04576346 55.63874673 62.90363561 49.7087895 66 43 C65.505 42.54625 65.01 42.0925 64.5 41.625 C63 40 63 40 63 38 C62.34 38 61.68 38 61 38 C59.66666667 36.33333333 58.33333333 34.66666667 57 33 C55.93562816 32.08171842 54.85174949 31.1855845 53.75 30.3125 C52.8425 29.549375 51.935 28.78625 51 28 C51 27.34 51 26.68 51 26 C50.42507813 25.88914062 49.85015625 25.77828125 49.2578125 25.6640625 C46.73452008 24.92191767 45.05786488 23.83806714 42.875 22.375 C29.50689701 14.25236055 15.39390921 10.79197391 0 9 C-1.125 6.1875 -1.125 6.1875 -2 3 C-1.34 2.01 -0.68 1.02 0 0 Z M74.25 51.0625 C72.24181135 54.1751924 72.5878795 56.34978982 73 60 C74.64656206 65.00723745 76.63370919 69.82451578 81 73 C83.64184541 73.79681318 83.64184541 73.79681318 86 74 C88.52051006 71.47948994 89.00606711 69.95601347 89.5 66.375 C89.30088995 61.07867254 87.02796507 56.28696108 84 52 C80.85421298 49.8900209 77.73608364 48.94594922 74.25 51.0625 Z " fill="#685A58" transform="translate(292,59)"/>
<path d="M0 0 C8.11472226 10.31679433 14 24.79307571 14 38 C51.29 38 88.58 38 127 38 C127 38.33 127 38.66 127 39 C89.38 39 51.76 39 13 39 C12.67 38.34 12.34 37.68 12 37 C9.03 37.495 9.03 37.495 6 38 C5.505 42.95 5.505 42.95 5 48 C4.67 48 4.34 48 4 48 C3.97421875 46.98421875 3.9484375 45.9684375 3.921875 44.921875 C3.48602343 33.04672967 1.24605559 23.26137704 -5 13 C-5 12.34 -5 11.68 -5 11 C-17.36385105 14.13575932 -26.30349155 22.07555489 -34 32 C-38.43286531 39.55228905 -40.57173227 48.34354138 -38.53271484 56.97900391 C-36.72897567 63.76981777 -34.73013599 70.51911645 -32 77 C-32.66 77 -33.32 77 -34 77 C-35.78808074 83.53939517 -35.78808074 83.53939517 -35.125 90.125 C-34.75375 90.74375 -34.3825 91.3625 -34 92 C-38.44839633 88.34378384 -40.34412558 83.64394832 -42.625 78.5 C-43.02452881 77.60015381 -43.42405762 76.70030762 -43.83569336 75.77319336 C-46.65033459 69.23275536 -48.64937445 63.16277907 -49 56 C-49.05542969 54.92363281 -49.11085937 53.84726563 -49.16796875 52.73828125 C-49.44241191 41.48611189 -48.1195096 32.09285193 -41 23 C-40.34 23 -39.68 23 -39 23 C-38.7525 22.236875 -38.505 21.47375 -38.25 20.6875 C-36.87869328 17.73919055 -35.7648921 16.64165468 -33 15 C-32.34 15 -31.68 15 -31 15 C-30.74710205 14.39172363 -30.4942041 13.78344727 -30.23364258 13.15673828 C-28.82232872 10.68938293 -27.70376794 9.89662277 -25.26171875 8.4921875 C-24.52373047 8.06292969 -23.78574219 7.63367188 -23.02539062 7.19140625 C-22.25388672 6.75699219 -21.48238281 6.32257813 -20.6875 5.875 C-19.92759766 5.43285156 -19.16769531 4.99070312 -18.38476562 4.53515625 C-6.32699551 -2.39989485 -6.32699551 -2.39989485 0 0 Z " fill="#685754" transform="translate(265,112)"/>
<path d="M0 0 C0.66 1.32 1.32 2.64 2 4 C3.65 3.67 5.3 3.34 7 3 C7.33 3.99 7.66 4.98 8 6 C8.88763613 5.99861731 8.88763613 5.99861731 9.79320431 5.99720669 C24.17233302 5.97515075 38.55146023 5.9585881 52.93060207 5.94818783 C59.88416081 5.94302504 66.83770827 5.93598266 73.79125977 5.92456055 C80.49557209 5.91355306 87.19987025 5.90772379 93.90419197 5.90512276 C96.46837613 5.90326798 99.03255962 5.89964636 101.59673882 5.89426994 C105.17445158 5.88706341 108.75211519 5.88600889 112.32983398 5.88647461 C113.40157364 5.88287933 114.47331329 5.87928406 115.57752991 5.87557983 C116.54653229 5.8769545 117.51553467 5.87832916 118.51390076 5.87974548 C119.36102851 5.87882369 120.20815626 5.8779019 121.08095455 5.87695217 C123 6 123 6 124 7 C124.15289263 9.24634554 124.22197467 11.49863174 124.25 13.75 C124.28867187 15.59851563 124.28867187 15.59851563 124.328125 17.484375 C123.97684315 21.24810915 123.0437193 22.90044618 121 26 C120.44327186 28.19519217 120.44327186 28.19519217 120.3125 30.3125 C120.209375 31.529375 120.10625 32.74625 120 34 C119.443125 33.7525 118.88625 33.505 118.3125 33.25 C115.75949064 32.71646324 115.75949064 32.71646324 113.25 34.9375 C112.5075 35.618125 111.765 36.29875 111 37 C110.55983059 28.49005812 112.08357922 22.94329699 114 14 C79.02 14 44.04 14 8 14 C7.67 16.97 7.34 19.94 7 23 C5.82063893 26.38302776 4.31297233 29.25258049 2 32 C-1.3125 33.0625 -1.3125 33.0625 -4 33 C-5.46107741 30.07784517 -5.29357286 28.288016 -5 25 C-4.38616698 23.5072697 -3.73607796 22.02924042 -3.0625 20.5625 C-0.17495515 13.89971983 -0.19134724 7.17552167 0 0 Z " fill="#5D4B46" transform="translate(270,145)"/>
<path d="M0 0 C4.23912448 6.81889748 7.36913936 12.79868647 7 21 C6.67 21.66 6.34 22.32 6 23 C5.34 23 4.68 23 4 23 C3.81630859 23.86044922 3.81630859 23.86044922 3.62890625 24.73828125 C1.05576968 33.99198358 -5.8805135 41.32828377 -12.875 47.5625 C-17.30748862 49.60144477 -21.20241549 49.79440523 -26 49 C-29.23939656 47.26460898 -31.42321134 45.57678866 -34 43 C-35.21254803 32.76420498 -33.05670222 25.19436182 -27 17 C-26.29875 16.030625 -25.5975 15.06125 -24.875 14.0625 C-21.28998484 9.84678772 -16.61068034 6.97998588 -12 4 C-11.33097656 3.56042969 -10.66195312 3.12085937 -9.97265625 2.66796875 C-6.43105702 0.47481211 -4.11124004 -0.17450085 0 0 Z " fill="#F8BA1E" transform="translate(260,123)"/>
<path d="M0 0 C2.70460757 4.05691136 2.4228002 7.22761768 2.4375 12 C2.44330078 13.27580933 2.44330078 13.27580933 2.44921875 14.57739258 C2.32149717 21.57214454 0.757718 27.02791246 -3 33 C-3.66 33 -4.32 33 -5 33 C-5.2784375 34.051875 -5.2784375 34.051875 -5.5625 35.125 C-8.85517433 41.71034866 -15.66023642 45.16483464 -21.75 48.875 C-22.74326294 49.48359863 -22.74326294 49.48359863 -23.7565918 50.10449219 C-28.63111085 53 -28.63111085 53 -32 53 C-38.11328565 42.41230954 -43.12516957 29.37686527 -42 17 C-41.67 17 -41.34 17 -41 17 C-40.938125 18.2375 -40.87625 19.475 -40.8125 20.75 C-40.3952818 24.21659244 -40.16685159 24.83314841 -37.5625 27.4375 C-32.66981257 30.420846 -28.69547184 30.97776341 -23 30 C-12.93059994 24.73243505 -7.59665591 14.9255225 -3 5 C-2.34 5 -1.68 5 -1 5 C-0.67 3.35 -0.34 1.7 0 0 Z " fill="#BD8E3B" transform="translate(267,141)"/>
<path d="M0 0 C8.11472226 10.31679433 14 24.79307571 14 38 C51.29 38 88.58 38 127 38 C127 38.33 127 38.66 127 39 C89.38 39 51.76 39 13 39 C12.67 38.34 12.34 37.68 12 37 C9.03 37.495 9.03 37.495 6 38 C5.505 42.95 5.505 42.95 5 48 C4.67 48 4.34 48 4 48 C3.97421875 46.98421875 3.9484375 45.9684375 3.921875 44.921875 C3.48602343 33.04672967 1.24605559 23.26137704 -5 13 C-5 12.34 -5 11.68 -5 11 C-6.43931117 11.45261358 -7.87638999 11.91232979 -9.3125 12.375 C-10.51326172 12.75785156 -10.51326172 12.75785156 -11.73828125 13.1484375 C-14.22724528 13.98831811 -14.22724528 13.98831811 -17 16 C-19.3329614 16.04166002 -21.6670386 16.04166002 -24 16 C-24.99 16.33 -25.98 16.66 -27 17 C-27 17.99 -27 18.98 -27 20 C-27.66 20 -28.32 20 -29 20 C-28.67 18.02 -28.34 16.04 -28 14 C-28.99 14.33 -29.98 14.66 -31 15 C-29.62877255 11.70189002 -28.34579531 10.26585606 -25.26171875 8.4921875 C-24.15473633 7.84830078 -24.15473633 7.84830078 -23.02539062 7.19140625 C-22.25388672 6.75699219 -21.48238281 6.32257813 -20.6875 5.875 C-19.92759766 5.43285156 -19.16769531 4.99070312 -18.38476562 4.53515625 C-6.32699551 -2.39989485 -6.32699551 -2.39989485 0 0 Z " fill="#6C5C57" transform="translate(265,112)"/>
<path d="M0 0 C6.19537981 0.10834527 11.11011256 0.40072117 15.75 4.9375 C19.67664633 10.77137455 22.22381595 16.02960116 21.9375 23.1875 C19.9375 26.1875 19.9375 26.1875 16.9375 27.1875 C10.23969949 27.87094903 3.69151538 25.95087243 -1.75 21.9453125 C-3.64041365 19.41350851 -4.11871535 16.94393515 -4.8125 13.875 C-5.07546875 12.76511719 -5.3384375 11.65523438 -5.609375 10.51171875 C-6.07642017 7.08537875 -5.87335909 4.53476586 -5.0625 1.1875 C-3.52940622 -0.34559378 -2.13068186 0.01827343 0 0 Z " fill="#675856" transform="translate(146.0625,286.8125)"/>
<path d="M0 0 C1.92642541 6.96476879 -0.25863489 12.63476799 -2.86328125 19.1640625 C-4.26367029 21.42585924 -5.47722251 22.07909343 -7.875 23.1875 C-8.89207031 23.67283203 -8.89207031 23.67283203 -9.9296875 24.16796875 C-14.32577287 25.9346974 -18.24782852 26.42430102 -23 26 C-25.5 24.5 -25.5 24.5 -27 22 C-27 15.63087268 -25.10985778 9.56034698 -22 4 C-16.56148053 -0.74424039 -6.87942193 -3.43971096 0 0 Z " fill="#655553" transform="translate(468,288)"/>
<path d="M0 0 C0.99 0.66 1.98 1.32 3 2 C3 2.99 3 3.98 3 5 C3.99 4.79375 4.98 4.5875 6 4.375 C9.59538163 3.84796615 12.39026982 4.51164716 15.890625 5.515625 C21.52382826 6.80917538 27.39447764 6.14985074 33 5 C33.495 7.97 33.495 7.97 34 11 C33.01 11 32.02 11 31 11 C31 11.66 31 12.32 31 13 C30.34 13 29.68 13 29 13 C29 13.99 29 14.98 29 16 C34.93915684 18.50710309 40.70277443 20.60061654 47 22 C47 22.33 47 22.66 47 23 C46.30132812 22.97679687 45.60265625 22.95359375 44.8828125 22.9296875 C43.97273438 22.91164062 43.06265625 22.89359375 42.125 22.875 C41.22007812 22.85179687 40.31515625 22.82859375 39.3828125 22.8046875 C36.81193006 22.75675164 36.81193006 22.75675164 35 25 C30.49724354 26.40986504 26.52066372 26.59718373 22.10546875 24.86328125 C19.31807678 23.34947193 16.65350546 21.73676348 14 20 C12.4221875 19.01 12.4221875 19.01 10.8125 18 C9.4203125 17.01 9.4203125 17.01 8 16 C7.34128906 15.54882812 6.68257812 15.09765625 6.00390625 14.6328125 C1.59179595 11.50790502 -1.31339562 8.70155767 -4 4 C-2.35 4 -0.7 4 1 4 C0.67 2.68 0.34 1.36 0 0 Z " fill="#5F4E4C" transform="translate(243,210)"/>
<path d="M0 0 C4.13284589 2.21402458 8.05873453 4.66613168 11.5 7.875 C11.5 8.535 11.5 9.195 11.5 9.875 C0.3024839 19.46298133 0.3024839 19.46298133 -6.375 19.625 C-13.94561982 18.71321002 -19.10462679 14.94238699 -24.5 9.875 C-20.66060542 -0.09859972 -9.21810888 -2.96296357 0 0 Z " fill="#F6B91F" transform="translate(271.5,198.125)"/>
<path d="M0 0 C4.90482315 1.60349988 5.84166344 4.59999402 8.25 9.0625 C8.58 6.0925 8.91 3.1225 9.25 0.0625 C10.9 0.3925 12.55 0.7225 14.25 1.0625 C14.25 7.3325 14.25 13.6025 14.25 20.0625 C12.27 20.0625 10.29 20.0625 8.25 20.0625 C6.5703125 18.3125 6.5703125 18.3125 5.375 16.0625 C4.96507812 15.32 4.55515625 14.5775 4.1328125 13.8125 C3.84148437 13.235 3.55015625 12.6575 3.25 12.0625 C2.59 14.7025 1.93 17.3425 1.25 20.0625 C-0.4 20.0625 -2.05 20.0625 -3.75 20.0625 C-3.77888514 16.91668577 -3.79675923 13.77090531 -3.8125 10.625 C-3.82087891 9.72716797 -3.82925781 8.82933594 -3.83789062 7.90429688 C-3.84111328 7.05029297 -3.84433594 6.19628906 -3.84765625 5.31640625 C-3.85551147 4.13026733 -3.85551147 4.13026733 -3.86352539 2.92016602 C-3.67696872 -0.1325431 -3.08112967 0.07002567 0 0 Z " fill="#675A58" transform="translate(371.75,354.9375)"/>
<path d="M0 0 C1.07765625 0.00902344 2.1553125 0.01804687 3.265625 0.02734375 C4.08546875 0.03894531 4.9053125 0.05054688 5.75 0.0625 C6.08 1.7125 6.41 3.3625 6.75 5.0625 C3.55144474 8.15076025 0.51873023 9.60355721 -3.625 11 C-8.59758287 12.68892869 -12.16138283 14.79160627 -16.25 18.0625 C-15.92 16.4125 -15.59 14.7625 -15.25 13.0625 C-16.24 13.0625 -17.23 13.0625 -18.25 13.0625 C-18.37375 12.093125 -18.4975 11.12375 -18.625 10.125 C-18.83125 9.114375 -19.0375 8.10375 -19.25 7.0625 C-19.91 6.7325 -20.57 6.4025 -21.25 6.0625 C-19.50197854 5.24575204 -17.75149811 4.43426549 -16 3.625 C-15.02546875 3.17253906 -14.0509375 2.72007812 -13.046875 2.25390625 C-8.49178676 0.31354045 -4.96530534 -0.05397071 0 0 Z " fill="#675856" transform="translate(283.25,261.9375)"/>
<path d="M0 0 C6.60471397 4.42713797 12.11554252 9.71352231 17 16 C17 16.66 17 17.32 17 18 C18.32 18.33 19.64 18.66 21 19 C18.36 18.67 15.72 18.34 13 18 C12.01 20.475 12.01 20.475 11 23 C10.67 22.34 10.34 21.68 10 21 C9.01 21.33 8.02 21.66 7 22 C5.5 20.625 5.5 20.625 4 19 C4 18.34 4 17.68 4 17 C3.34 17 2.68 17 2 17 C0.66666667 15.33333333 -0.66666667 13.66666667 -2 12 C-3.93920267 10.24140935 -5.94931631 8.63122567 -8 7 C-5.31158141 4.74754119 -3.35358125 3.11786042 0 2 C0 1.34 0 0.68 0 0 Z " fill="#6C5E5C" transform="translate(351,80)"/>
<path d="M0 0 C1.21236328 0.01353516 1.21236328 0.01353516 2.44921875 0.02734375 C3.37154297 0.04474609 3.37154297 0.04474609 4.3125 0.0625 C4.3125 1.7125 4.3125 3.3625 4.3125 5.0625 C2.26171875 5.29036458 0.2109375 5.51822917 -1.83984375 5.74609375 C-3.69890229 5.88136614 -3.69890229 5.88136614 -4.6875 7.0625 C-4.72842937 9.39547433 -4.72991723 11.72955225 -4.6875 14.0625 C-2.2125 15.0525 -2.2125 15.0525 0.3125 16.0625 C0.3125 15.0725 0.3125 14.0825 0.3125 13.0625 C-1.0075 13.0625 -2.3275 13.0625 -3.6875 13.0625 C-3.6875 11.7425 -3.6875 10.4225 -3.6875 9.0625 C-0.7175 9.0625 2.2525 9.0625 5.3125 9.0625 C5.33938151 10.70824566 5.35884123 12.35411413 5.375 14 C5.38660156 14.91652344 5.39820313 15.83304687 5.41015625 16.77734375 C5.3125 19.0625 5.3125 19.0625 4.3125 20.0625 C-0.34959716 20.51144269 -4.4435109 20.62102572 -8.75 18.6875 C-10.93743873 16.85287397 -11.58764043 15.89575441 -11.92578125 13.07421875 C-12.05748748 8.94973425 -12.05772455 6.67528547 -9.875 3.0625 C-6.68048103 0.14179694 -4.16067407 -0.06029962 0 0 Z " fill="#9B9191" transform="translate(272.6875,354.9375)"/>
<path d="M0 0 C0.66 0.33 1.32 0.66 2 1 C1.34 2.98 0.68 4.96 0 7 C0.99 7 1.98 7 3 7 C0.16903156 17.06566556 -11.61273574 26.4084905 -20 32 C-20.99 32 -21.98 32 -23 32 C-26 27.77777778 -26 27.77777778 -26 25 C-23.86187871 22.32734838 -22.23725763 21.78478973 -19 21 C-16.7927642 19.51199628 -16.7927642 19.51199628 -15 18 C-13.68 18.66 -12.36 19.32 -11 20 C-11 19.34 -11 18.68 -11 18 C-10.34 18 -9.68 18 -9 18 C-8.7834375 17.071875 -8.7834375 17.071875 -8.5625 16.125 C-8 14 -8 14 -7 12 C-6.9175 11.236875 -6.835 10.47375 -6.75 9.6875 C-5.74498433 6.08619385 -3.70613135 4.5031715 -1 2 C-0.67 1.34 -0.34 0.68 0 0 Z " fill="#655656" transform="translate(375,197)"/>
<path d="M0 0 C2.64453125 1.01953125 2.64453125 1.01953125 4.4453125 4.2578125 C4.96975565 5.60808764 5.47298936 6.96675215 5.95703125 8.33203125 C6.22064453 9.00943359 6.48425781 9.68683594 6.75585938 10.38476562 C8.0503267 13.82435024 8.64453125 16.30320767 8.64453125 20.01953125 C6.99453125 20.01953125 5.34453125 20.01953125 3.64453125 20.01953125 C3.31453125 19.02953125 2.98453125 18.03953125 2.64453125 17.01953125 C0.66453125 16.68953125 -1.31546875 16.35953125 -3.35546875 16.01953125 C-3.68546875 17.33953125 -4.01546875 18.65953125 -4.35546875 20.01953125 C-6.00546875 20.01953125 -7.65546875 20.01953125 -9.35546875 20.01953125 C-8.74539555 15.45091492 -7.54025996 11.49247401 -5.85546875 7.20703125 C-5.41203125 6.06621094 -4.96859375 4.92539062 -4.51171875 3.75 C-2.93403819 0.02432867 -2.93403819 0.02432867 0 0 Z " fill="#716665" transform="translate(230.35546875,354.98046875)"/>
<path d="M0 0 C1.65322266 0.01740234 1.65322266 0.01740234 3.33984375 0.03515625 C4.99693359 0.04869141 4.99693359 0.04869141 6.6875 0.0625 C7.54214844 0.07410156 8.39679688 0.08570313 9.27734375 0.09765625 C9.83984375 2.03515625 9.83984375 2.03515625 10.27734375 4.09765625 C9.27734375 5.09765625 9.27734375 5.09765625 7.4296875 5.1953125 C5.37890625 5.16276042 3.328125 5.13020833 1.27734375 5.09765625 C1.27734375 6.08765625 1.27734375 7.07765625 1.27734375 8.09765625 C3.58734375 8.09765625 5.89734375 8.09765625 8.27734375 8.09765625 C8.27734375 9.41765625 8.27734375 10.73765625 8.27734375 12.09765625 C5.96734375 12.09765625 3.65734375 12.09765625 1.27734375 12.09765625 C1.27734375 13.41765625 1.27734375 14.73765625 1.27734375 16.09765625 C4.24734375 16.09765625 7.21734375 16.09765625 10.27734375 16.09765625 C10.27734375 17.41765625 10.27734375 18.73765625 10.27734375 20.09765625 C5.65734375 20.09765625 1.03734375 20.09765625 -3.72265625 20.09765625 C-3.74949322 16.95176681 -3.76941527 13.80610354 -3.78515625 10.66015625 C-3.79353516 9.76232422 -3.80191406 8.86449219 -3.81054688 7.93945312 C-3.81376953 7.08544922 -3.81699219 6.23144531 -3.8203125 5.3515625 C-3.82816772 4.16542358 -3.82816772 4.16542358 -3.83618164 2.95532227 C-3.6507385 -0.07916552 -3.06063292 0.1097788 0 0 Z " fill="#9A9291" transform="translate(413.72265625,354.90234375)"/>
<path d="M0 0 C1.93747023 2.40513546 3 3.99627622 3 7.125 C1.47119008 9.9915186 -0.02075668 10.66238055 -3 12 C-12.12295082 14.43852459 -12.12295082 14.43852459 -15 13 C-15.99 13.33 -16.98 13.66 -18 14 C-18.66 13.67 -19.32 13.34 -20 13 C-20.625 10.4375 -20.625 10.4375 -21 8 C-19.91332031 7.51080078 -19.91332031 7.51080078 -18.8046875 7.01171875 C-17.83789062 6.57472656 -16.87109375 6.13773438 -15.875 5.6875 C-14.87082031 5.23375 -13.86664063 4.78 -12.83203125 4.3125 C-10.71343157 3.33063863 -8.62802403 2.27659449 -6.5625 1.1875 C-4 0 -4 0 0 0 Z " fill="#604E4A" transform="translate(349,222)"/>
<path d="M0 0 C2.39011632 1.60967018 4.18198512 2.82604848 6 5 C6.34096609 8.68243373 5.8872828 10.7733048 3.703125 13.79296875 C-0.65673126 18.49538514 -6.10986297 22.4462343 -12 25 C-12.99 24.67 -13.98 24.34 -15 24 C-14.34 24 -13.68 24 -13 24 C-13 23.34 -13 22.68 -13 22 C-12.34 21.67 -11.68 21.34 -11 21 C-11.33 20.01 -11.66 19.02 -12 18 C-11.67 17.34 -11.34 16.68 -11 16 C-12.32 16.33 -13.64 16.66 -15 17 C-12.17589976 14.07130346 -9.27847819 11.41572077 -6 9 C-5.34 9 -4.68 9 -4 9 C-4.33 8.01 -4.66 7.02 -5 6 C-4.01 6 -3.02 6 -2 6 C-1.67 6.66 -1.34 7.32 -1 8 C0.32 7.34 1.64 6.68 3 6 C2.67 7.32 2.34 8.64 2 10 C2.66 10 3.32 10 4 10 C4 8.35 4 6.7 4 5 C2.68 4.67 1.36 4.34 0 4 C0 2.68 0 1.36 0 0 Z " fill="#594945" transform="translate(287,199)"/>
<path d="M0 0 C0.52110352 0.32145996 1.04220703 0.64291992 1.57910156 0.97412109 C4.71402187 2.30257361 7.33289608 2.3245499 10.734375 2.4140625 C12.02988281 2.45273438 13.32539063 2.49140625 14.66015625 2.53125 C16.02343284 2.56270267 17.38671418 2.59395007 18.75 2.625 C20.12893028 2.66320469 21.50783734 2.70225787 22.88671875 2.7421875 C26.25767718 2.83648004 29.62862978 2.9220822 33 3 C32.34 4.32 31.68 5.64 31 7 C33.47923801 7.02685095 35.9581884 7.04676547 38.4375 7.0625 C39.14455078 7.07087891 39.85160156 7.07925781 40.58007812 7.08789062 C42.38693559 7.09653588 44.19387603 7.05220011 46 7 C46.33 6.67 46.66 6.34 47 6 C48.99958364 5.95919217 51.00045254 5.95745644 53 6 C48.19166626 10.80833374 40.18412646 9.33431733 33.8125 9.375 C32.79547501 9.38184311 32.79547501 9.38184311 31.75790405 9.38882446 C8.18557445 9.44585627 8.18557445 9.44585627 0.10546875 2.33203125 C-0.44173828 1.67267578 -0.44173828 1.67267578 -1 1 C-0.67 0.67 -0.34 0.34 0 0 Z " fill="#BD8D3B" transform="translate(272,224)"/>
<path d="M0 0 C1.96223511 -0.00290039 1.96223511 -0.00290039 3.96411133 -0.00585938 C5.46175247 -0.00170463 6.9593925 0.00286894 8.45703125 0.0078125 C9.21776947 0.00869873 9.97850769 0.00958496 10.76229858 0.01049805 C40.93202591 0.05038632 71.10419049 0.65733137 101.26953125 1.1328125 C101.26953125 1.4628125 101.26953125 1.7928125 101.26953125 2.1328125 C66.28953125 2.1328125 31.30953125 2.1328125 -4.73046875 2.1328125 C-5.06046875 5.1028125 -5.39046875 8.0728125 -5.73046875 11.1328125 C-6.06046875 11.1328125 -6.39046875 11.1328125 -6.73046875 11.1328125 C-6.75735026 9.48706684 -6.77680998 7.84119837 -6.79296875 6.1953125 C-6.80457031 5.27878906 -6.81617188 4.36226562 -6.828125 3.41796875 C-6.63643811 -1.06750456 -3.86532493 0.00396589 0 0 Z " fill="#6B4E2D" transform="translate(282.73046875,156.8671875)"/>
<path d="M0 0 C1.32 0.66 2.64 1.32 4 2 C4.3449451 8.55395693 3.82169396 13.28362259 -0.28125 18.6875 C-2.64841663 20.49515451 -4.24829951 20.3020143 -7.1875 20.1875 C-8.53908203 20.14689453 -8.53908203 20.14689453 -9.91796875 20.10546875 C-10.60503906 20.07066406 -11.29210937 20.03585938 -12 20 C-12 19.67 -12 19.34 -12 19 C-10.02 19 -8.04 19 -6 19 C-6.99 18.34 -7.98 17.68 -9 17 C-9.33 16.01 -9.66 15.02 -10 14 C-8.76178253 12.50110517 -7.51742945 11.00580826 -6.21484375 9.5625 C-4.60043783 7.48609368 -4.22854529 5.59017998 -4 3 C-3.01 2.67 -2.02 2.34 -1 2 C-0.67 1.34 -0.34 0.68 0 0 Z " fill="#655655" transform="translate(386,122)"/>
<path d="M0 0 C4.95 0 9.9 0 15 0 C15.33 1.65 15.66 3.3 16 5 C14.02 5 12.04 5 10 5 C10 9.95 10 14.9 10 20 C8.35 19.67 6.7 19.34 5 19 C5 14.38 5 9.76 5 5 C3.02 5 1.04 5 -1 5 C-0.67 3.35 -0.34 1.7 0 0 Z " fill="#897E7E" transform="translate(185,355)"/>
<path d="M0 0 C0.33 0 0.66 0 1 0 C1.46882399 8.12628256 1.46882399 8.12628256 -0.375 11.5625 C-2 13 -2 13 -4 13 C-3.67 14.65 -3.34 16.3 -3 18 C-2.34 18 -1.68 18 -1 18 C-0.67 19.32 -0.34 20.64 0 22 C-5.41490868 22.28008148 -9.53193247 22.48727221 -14 19 C-15.10865657 15.61166837 -15.64375229 12.28750458 -14 9 C-14.66 8.67 -15.32 8.34 -16 8 C-16 6.02 -16 4.04 -16 2 C-15.34 1.67 -14.68 1.34 -14 1 C-13.1646875 2.6396875 -13.1646875 2.6396875 -12.3125 4.3125 C-10.39425402 7.66602931 -8.66370798 9.49694031 -5 11 C-4.01 10.67 -3.02 10.34 -2 10 C-1.34 6.7 -0.68 3.4 0 0 Z " fill="#746765" transform="translate(381,121)"/>
<path d="M0 0 C1.32 0 2.64 0 4 0 C5.14077657 3.42232972 5.09815117 6.08673217 5.0625 9.6875 C5.05347656 10.86699219 5.04445313 12.04648437 5.03515625 13.26171875 C5.02355469 14.16535156 5.01195312 15.06898438 5 16 C7.64 16 10.28 16 13 16 C13 17.32 13 18.64 13 20 C8.38 20 3.76 20 -1 20 C-1.02683697 16.85411056 -1.04675902 13.70844729 -1.0625 10.5625 C-1.07087891 9.66466797 -1.07925781 8.76683594 -1.08789062 7.84179688 C-1.09111328 6.98779297 -1.09433594 6.13378906 -1.09765625 5.25390625 C-1.10551147 4.06776733 -1.10551147 4.06776733 -1.11352539 2.85766602 C-1 1 -1 1 0 0 Z " fill="#908786" transform="translate(303,355)"/>
<path d="M0 0 C0.33 0 0.66 0 1 0 C0.93793329 12.90987612 -4.8699543 25.4819184 -12 36 C-12.66666667 34 -13.33333333 32 -14 30 C-13.34 29.67 -12.68 29.34 -12 29 C-12 28.34 -12 27.68 -12 27 C-11.34 27 -10.68 27 -10 27 C-10.55312735 22.97007218 -11.1558062 18.97977076 -12 15 C-6.25 10 -6.25 10 -4 10 C-4 10.66 -4 11.32 -4 12 C-3.34 12 -2.68 12 -2 12 C-2.04125 10.7625 -2.0825 9.525 -2.125 8.25 C-2.13658291 4.98362038 -1.8568702 2.7853053 0 0 Z " fill="#655655" transform="translate(392,167)"/>
<path d="M0 0 C2 3.75 2 3.75 2 6 C3.65 5.67 5.3 5.34 7 5 C5.79618552 7.49361571 4.54571278 9.68143083 3 12 C2.34 12 1.68 12 1 12 C0.67 13.32 0.34 14.64 0 16 C1.98 16 3.96 16 6 16 C6 16.33 6 16.66 6 17 C3.36 17 0.72 17 -2 17 C-2 15.68 -2 14.36 -2 13 C-2.66 12.67 -3.32 12.34 -4 12 C-4 11.01 -4 10.02 -4 9 C-4.99 9.33 -5.98 9.66 -7 10 C-7.0825 10.78375 -7.165 11.5675 -7.25 12.375 C-8 15 -8 15 -9.75 16.3125 C-12.27508669 17.08405427 -14.37389293 17.14589484 -17 17 C-17 17.66 -17 18.32 -17 19 C-20 21 -20 21 -22.1875 20.625 C-23.0846875 20.315625 -23.0846875 20.315625 -24 20 C-21.71180854 18.49445366 -19.41978831 16.99542957 -17.125 15.5 C-16.47402344 15.07074219 -15.82304687 14.64148438 -15.15234375 14.19921875 C-10.2265625 11 -10.2265625 11 -8 11 C-7.67 10.01 -7.34 9.02 -7 8 C-5.68733482 6.64631404 -4.35432675 5.31200404 -3 4 C-2.67 3.34 -2.34 2.68 -2 2 C-1.34 2 -0.68 2 0 2 C0 1.34 0 0.68 0 0 Z " fill="#664E3D" transform="translate(264,172)"/>
<path d="M0 0 C1.65 0.33 3.3 0.66 5 1 C5 7.27 5 13.54 5 20 C3.02 20 1.04 20 -1 20 C-2.32 17.69 -3.64 15.38 -5 13 C-4.34 12.01 -3.68 11.02 -3 10 C-2.67 9.34 -2.34 8.68 -2 8 C-1.67 8.33 -1.34 8.66 -1 9 C-0.67 6.03 -0.34 3.06 0 0 Z " fill="#918686" transform="translate(381,355)"/>
<path d="M0 0 C1.74627478 2.61941217 2.38722388 4.03824877 3 7 C5.41645782 7.16687448 5.41645782 7.16687448 8 7 C8.66 6.34 9.32 5.68 10 5 C9.67 6.65 9.34 8.3 9 10 C6.525 9.505 6.525 9.505 4 9 C4 9.66 4 10.32 4 11 C2.34997172 12.35386936 0.6825613 13.68678142 -1 15 C-1.33 15.66 -1.66 16.32 -2 17 C-8.14830711 15.79444959 -10.35248219 14.08441876 -14 9 C-13.01 8.67 -12.02 8.34 -11 8 C-10.34 8.33 -9.68 8.66 -9 9 C-9 9.66 -9 10.32 -9 11 C-8.54625 10.54625 -8.0925 10.0925 -7.625 9.625 C-6.41666667 8.41666667 -5.20833333 7.20833333 -4 6 C-3.01 6.33 -2.02 6.66 -1 7 C-0.67 4.69 -0.34 2.38 0 0 Z " fill="#6C5E5D" transform="translate(203,315)"/>
<path d="M0 0 C2.53125 -0.36328125 2.53125 -0.36328125 5.5 -0.3125 C6.4796875 -0.30863281 7.459375 -0.30476563 8.46875 -0.30078125 C11 0 11 0 13 2 C14.01241685 3.32392972 15.01439389 4.65599167 16 6 C15 8 15 8 14 9 C11.64686445 9.07271741 9.29166332 9.08370868 6.9375 9.0625 C5.64714844 9.05347656 4.35679687 9.04445313 3.02734375 9.03515625 C2.02832031 9.02355469 1.02929688 9.01195313 0 9 C-1.125 6.1875 -1.125 6.1875 -2 3 C-1.34 2.01 -0.68 1.02 0 0 Z " fill="#615150" transform="translate(292,59)"/>
<path d="M0 0 C-0.33 1.32 -0.66 2.64 -1 4 C-0.0925 3.814375 0.815 3.62875 1.75 3.4375 C4.81387973 3.02505465 6.1297269 3.25928436 9 4 C11.68149993 3.61432869 11.68149993 3.61432869 14 3 C10.24891997 6.45707646 5.927865 7.40337374 1.125 8.6875 C-0.06029297 9.02491211 -0.06029297 9.02491211 -1.26953125 9.36914062 C-5.62121148 10.56024112 -9.44478383 11.27096945 -14 11 C-14 10.67 -14 10.34 -14 10 C-12.35 10 -10.7 10 -9 10 C-9.33 7.03 -9.66 4.06 -10 1 C-6.21812119 -0.83691257 -4.05431692 -1.15837626 0 0 Z " fill="#665551" transform="translate(330,231)"/>
<path d="M0 0 C1.21236328 0.01353516 1.21236328 0.01353516 2.44921875 0.02734375 C3.37154297 0.04474609 3.37154297 0.04474609 4.3125 0.0625 C4.3125 1.7125 4.3125 3.3625 4.3125 5.0625 C2.32682292 5.29036458 0.34114583 5.51822917 -1.64453125 5.74609375 C-3.88146393 6.03420735 -3.88146393 6.03420735 -6.6875 7.0625 C-6.6875 9.7025 -6.6875 12.3425 -6.6875 15.0625 C-7.6775 15.3925 -8.6675 15.7225 -9.6875 16.0625 C-10.91441067 13.60867866 -10.88925931 11.86265897 -10.9375 9.125 C-10.96328125 8.24972656 -10.9890625 7.37445313 -11.015625 6.47265625 C-10.6875 4.0625 -10.6875 4.0625 -9.359375 2.30859375 C-6.33528511 0.05465759 -3.63165181 -0.05263263 0 0 Z " fill="#736867" transform="translate(272.6875,354.9375)"/>
<path d="M0 0 C2.0625 1.75 2.0625 1.75 4 4 C3.77627232 6.58067281 3.20781614 7.76767222 1.4765625 9.703125 C0.86554688 10.21359375 0.25453125 10.7240625 -0.375 11.25 C-0.98085938 11.77078125 -1.58671875 12.2915625 -2.2109375 12.828125 C-4 14 -4 14 -7 14 C-10 9.77777778 -10 9.77777778 -10 7 C-7.86035158 4.32543947 -6.22885721 3.8072143 -3 3 C-1.26973898 1.52109931 -1.26973898 1.52109931 0 0 Z " fill="#665655" transform="translate(359,215)"/>
<path d="M0 0 C1.8125 2.125 1.8125 2.125 3 4 C2.34 4 1.68 4 1 4 C1 4.66 1 5.32 1 6 C-1.37901175 7.18950588 -2.85517878 7.10114187 -5.5 7.0625 C-6.69109375 7.04896484 -6.69109375 7.04896484 -7.90625 7.03515625 C-8.5971875 7.02355469 -9.288125 7.01195312 -10 7 C-10.66 7 -11.32 7 -12 7 C-12.66 7.66 -13.32 8.32 -14 9 C-13.34 5.7 -12.68 2.4 -12 -1 C-7.34022304 -1.91368176 -4.19084448 -2.44465928 0 0 Z " fill="#807171" transform="translate(403,306)"/>
<path d="M0 0 C2.475 0.495 2.475 0.495 5 1 C5 7.27 5 13.54 5 20 C3.35 20 1.7 20 0 20 C0 13.4 0 6.8 0 0 Z " fill="#8B8280" transform="translate(339,355)"/>
<path d="M0 0 C6.4525071 0.51210374 11.95949234 1.70042605 18 4 C19.01513672 4.35771484 19.01513672 4.35771484 20.05078125 4.72265625 C24.68360616 6.47795016 24.68360616 6.47795016 26.25 9.0625 C26.4975 9.701875 26.745 10.34125 27 11 C27.99 11.66 28.98 12.32 30 13 C31.19667203 16.59001609 31.20538881 19.5904839 31.25 23.375 C31.27578125 24.68210938 31.3015625 25.98921875 31.328125 27.3359375 C30.98814561 31.13237399 30.35560734 33.03833834 28 36 C27.34 36 26.68 36 26 36 C26.2165625 35.38253906 26.433125 34.76507813 26.65625 34.12890625 C28.50274738 28.51247671 30.26825341 22.92229048 29 17 C27.55203947 14.65209178 25.94615023 12.99480398 24 11 C24 10.34 24 9.68 24 9 C23.15695312 8.7215625 22.31390625 8.443125 21.4453125 8.15625 C17.90973011 6.96970534 14.39035254 5.74517887 10.875 4.5 C9.67617188 4.0771875 8.47734375 3.654375 7.2421875 3.21875 C4.71594526 2.26912641 2.37183034 1.2744163 0 0 Z " fill="#C9942E" transform="translate(330,160)"/>
<path d="M0 0 C0 0.66 0 1.32 0 2 C0.78375 1.814375 1.5675 1.62875 2.375 1.4375 C5 1 5 1 7 2 C6.67 3.32 6.34 4.64 6 6 C5.34 5.67 4.68 5.34 4 5 C4.66 7.97 5.32 10.94 6 14 C5.01 14.66 4.02 15.32 3 16 C2.49632243 14.54293274 1.99717444 13.08429904 1.5 11.625 C1.2215625 10.81289062 0.943125 10.00078125 0.65625 9.1640625 C0 7 0 7 0 5 C-2.64 5 -5.28 5 -8 5 C-7.625 3.0625 -7.625 3.0625 -7 1 C-4.53721199 -0.231394 -2.7204945 -0.07159196 0 0 Z " fill="#5C4945" transform="translate(261,116)"/>
<path d="M0 0 C0.66 0 1.32 0 2 0 C2 1.65 2 3.3 2 5 C1.01 5.33 0.02 5.66 -1 6 C-1 6.66 -1 7.32 -1 8 C-1.66 8 -2.32 8 -3 8 C-3 9.32 -3 10.64 -3 12 C-1.35 12 0.3 12 2 12 C1.67 10.68 1.34 9.36 1 8 C1.99 8 2.98 8 4 8 C4.66 8.66 5.32 9.32 6 10 C3.07959542 12.46409136 0.06101103 14.70808681 -3.125 16.8125 C-3.78757812 17.25207031 -4.45015625 17.69164062 -5.1328125 18.14453125 C-7 19 -7 19 -10 18 C-9.34 18 -8.68 18 -8 18 C-8 17.34 -8 16.68 -8 16 C-7.34 15.67 -6.68 15.34 -6 15 C-6.33 14.01 -6.66 13.02 -7 12 C-6.67 11.34 -6.34 10.68 -6 10 C-7.32 10.33 -8.64 10.66 -10 11 C-7.17589976 8.07130346 -4.27847819 5.41572077 -1 3 C-0.34 3 0.32 3 1 3 C0.67 2.01 0.34 1.02 0 0 Z " fill="#6D5336" transform="translate(282,205)"/>
<path d="M0 0 C1.2989839 0.90626784 2.58893167 1.82549537 3.875 2.75 C4.59429687 3.26046875 5.31359375 3.7709375 6.0546875 4.296875 C8.08570565 6.07503547 8.97855012 7.52701607 10 10 C8.02 8.68 6.04 7.36 4 6 C3.34 7.32 2.68 8.64 2 10 C1.34 10 0.68 10 0 10 C-0.33 10.99 -0.66 11.98 -1 13 C-3.31 11.02 -5.62 9.04 -8 7 C-5.31158141 4.74754119 -3.35358125 3.11786042 0 2 C0 1.34 0 0.68 0 0 Z " fill="#7B6D6B" transform="translate(351,80)"/>
<path d="M0 0 C2.8992226 0.46761655 3.86675182 0.86675182 6 3 C5.67 3.66 5.34 4.32 5 5 C5.99 5.66 6.98 6.32 8 7 C8 7.66 8 8.32 8 9 C9.65 9 11.3 9 13 9 C13 9.33 13 9.66 13 10 C4.97229811 9.44636539 -2.33854067 7.34312056 -10 5 C-7.31720027 2.31720027 -4.61320866 1.98542054 -1 1 C-0.67 0.67 -0.34 0.34 0 0 Z " fill="#6E605E" transform="translate(280,232)"/>
<path d="M0 0 C1.27450447 0.59638333 2.54446877 1.20247416 3.8125 1.8125 C4.52019531 2.14894531 5.22789062 2.48539063 5.95703125 2.83203125 C8.03804859 4.02175244 9.46936202 5.16033731 11 7 C11 7.66 11 8.32 11 9 C-0.22044283 18.60761256 -0.22044283 18.60761256 -7.125 18.6875 C-11 18 -11 18 -14 16 C-12.80375 16.04125 -11.6075 16.0825 -10.375 16.125 C-5.78946148 16.116884 -1.92448009 15.45995041 1.8125 12.625 C3.16643156 10.77225155 3.61253782 9.24728066 4 7 C5.32 7.33 6.64 7.66 8 8 C6.20694093 6.01819787 4.6498386 4.79641779 2.3125 3.4375 C1.549375 2.963125 0.78625 2.48875 0 2 C0 1.34 0 0.68 0 0 Z " fill="#F2B926" transform="translate(272,199)"/>
<path d="M0 0 C-0.33 1.98 -0.66 3.96 -1 6 C-0.34 6 0.32 6 1 6 C1 5.01 1 4.02 1 3 C3.3125 1.875 3.3125 1.875 6 1 C6.99 1.66 7.98 2.32 9 3 C8.38511719 3.47050781 7.77023438 3.94101563 7.13671875 4.42578125 C6.32847656 5.04839844 5.52023438 5.67101562 4.6875 6.3125 C3.88699219 6.92738281 3.08648437 7.54226562 2.26171875 8.17578125 C0.37298626 9.69916307 -1.33077636 11.24434407 -3 13 C-3 12.01 -3 11.02 -3 10 C-3.66 9.67 -4.32 9.34 -5 9 C-5.72159424 7.35636866 -6.39351421 5.68949614 -7 4 C-5.68 3.67 -4.36 3.34 -3 3 C-3.33 2.34 -3.66 1.68 -4 1 C-2 0 -2 0 0 0 Z " fill="#654D3C" transform="translate(237,126)"/>
<path d="M0 0 C1.32 0.66 2.64 1.32 4 2 C4.125 9.75 4.125 9.75 3 12 C1.02 11.34 -0.96 10.68 -3 10 C-3.33 10.99 -3.66 11.98 -4 13 C-4.99 13.33 -5.98 13.66 -7 14 C-7.66 13.34 -8.32 12.68 -9 12 C-8.360625 11.443125 -7.72125 10.88625 -7.0625 10.3125 C-4.80319013 7.77933439 -4.36850953 6.31658576 -4 3 C-3.01 2.67 -2.02 2.34 -1 2 C-0.67 1.34 -0.34 0.68 0 0 Z " fill="#584746" transform="translate(386,122)"/>
<path d="M0 0 C0.33 0 0.66 0 1 0 C1.061875 1.2375 1.12375 2.475 1.1875 3.75 C1.59868617 7.23587675 1.74937321 7.77443589 4.5 10.25 C5.325 10.8275 6.15 11.405 7 12 C7.875 14.125 7.875 14.125 8 16 C7.67 16.66 7.34 17.32 7 18 C6.93049459 19.54023996 6.91547643 21.08334988 6.9375 22.625 C6.95103516 23.85089844 6.95103516 23.85089844 6.96484375 25.1015625 C6.97644531 25.72804687 6.98804688 26.35453125 7 27 C5 26 5 26 3.7109375 22.5 C3.25383367 21.0035511 2.80917704 19.50326096 2.375 18 C2.14917236 17.22922119 1.92334473 16.45844238 1.69067383 15.66430664 C0.18631514 10.28365848 -0.50947992 5.60427912 0 0 Z " fill="#B38940" transform="translate(225,158)"/>
<path d="M0 0 C1.9375 3.0625 1.9375 3.0625 3 6 C2.01 6.495 2.01 6.495 1 7 C1 6.34 1 5.68 1 5 C-0.65 5.33 -2.3 5.66 -4 6 C-4 5.34 -4 4.68 -4 4 C-4.78375 4 -5.5675 4 -6.375 4 C-7.91666667 4 -9.45833333 4 -11 4 C-11.99 4.495 -11.99 4.495 -13 5 C-13.66 4.34 -14.32 3.68 -15 3 C-9.85695799 -0.11254231 -6.03441938 -2.12979507 0 0 Z " fill="#7C706E" transform="translate(265,112)"/>
<path d="M0 0 C2.64 0 5.28 0 8 0 C8 3.3 8 6.6 8 10 C4.7 10 1.4 10 -2 10 C-2 9.34 -2 8.68 -2 8 C-0.02 8 1.96 8 4 8 C4 6.35 4 4.7 4 3 C2.68 3 1.36 3 0 3 C0 2.01 0 1.02 0 0 Z " fill="#544847" transform="translate(270,364)"/>
<path d="M0 0 C3.3 0.33 6.6 0.66 10 1 C10 1.66 10 2.32 10 3 C7.69 3 5.38 3 3 3 C3 4.98 3 6.96 3 9 C5.97 9 8.94 9 12 9 C12 9.66 12 10.32 12 11 C8.04 11 4.08 11 0 11 C0 7.37 0 3.74 0 0 Z " fill="#544948" transform="translate(411,363)"/>
<path d="M0 0 C0.33 2.31 0.66 4.62 1 7 C-1.33214148 8.20628008 -3.49642139 9.1654738 -6 10 C-6 10.99 -6 11.98 -6 13 C-6.66 13 -7.32 13 -8 13 C-7.67 11.02 -7.34 9.04 -7 7 C-7.99 7.33 -8.98 7.66 -10 8 C-8.48502075 3.75805811 -4.70198172 0 0 0 Z " fill="#70625F" transform="translate(244,119)"/>
<path d="M0 0 C0.99 0.33 1.98 0.66 3 1 C4.65715064 6.72470222 3.2888464 11.64591438 1 17 C0.34 17.33 -0.32 17.66 -1 18 C-2.02471429 14.92585714 -2.73066742 12.23199091 -3 9 C-2.02149805 7.97895449 -1.02019573 6.9793879 0 6 C0.25048636 2.87450983 0.25048636 2.87450983 0 0 Z " fill="#796D6C" transform="translate(332,262)"/>
<path d="M0 0 C1.6286551 0.42369072 3.25287378 0.8644623 4.875 1.3125 C5.77992188 1.55613281 6.68484375 1.79976562 7.6171875 2.05078125 C10 3 10 3 12 6 C10.02 6.33 8.04 6.66 6 7 C5.67 6.01 5.34 5.02 5 4 C3.35857037 2.9590934 1.69287785 1.95495674 0 1 C0 0.67 0 0.34 0 0 Z M6 7 C6.33 7.99 6.66 8.98 7 10 C7.66 10.33 8.32 10.66 9 11 C9 11.66 9 12.32 9 13 C9.99 13.33 10.98 13.66 12 14 C11.67 14.66 11.34 15.32 11 16 C10.39671875 15.59007812 9.7934375 15.18015625 9.171875 14.7578125 C8.37265625 14.21898437 7.5734375 13.68015625 6.75 13.125 C5.96109375 12.59132812 5.1721875 12.05765625 4.359375 11.5078125 C2.28444308 10.18177985 0.22385028 9.05071825 -2 8 C3.75 7 3.75 7 6 7 Z " fill="#715530" transform="translate(270,189)"/>
<path d="M0 0 C1.32 0 2.64 0 4 0 C4 4.95 4 9.9 4 15 C2.66666667 15 1.33333333 15 0 15 C0 10.05 0 5.1 0 0 Z " fill="#655958" transform="translate(303,355)"/>
<path d="M0 0 C1.67542976 0.28604898 3.34385343 0.61781233 5 1 C5.73080266 2.97746603 6.39421747 4.98072489 7 7 C6.67 7.66 6.34 8.32 6 9 C5.34 9 4.68 9 4 9 C4 9.99 4 10.98 4 12 C3.01 11.67 2.02 11.34 1 11 C1 9.68 1 8.36 1 7 C1.66 7 2.32 7 3 7 C2.01 6.01 1.02 5.02 0 4 C0 4.66 0 5.32 0 6 C-0.66 6 -1.32 6 -2 6 C-1.125 1.125 -1.125 1.125 0 0 Z " fill="#897B7B" transform="translate(228,355)"/>
<path d="M0 0 C0.66 0 1.32 0 2 0 C1.67 1.32 1.34 2.64 1 4 C0.34 4 -0.32 4 -1 4 C-1.3403125 4.86625 -1.3403125 4.86625 -1.6875 5.75 C-3.33038023 8.5663661 -5.39533227 10.08077114 -8 12 C-8.66 11.67 -9.32 11.34 -10 11 C-10.33 11.99 -10.66 12.98 -11 14 C-12.32 13.67 -13.64 13.34 -15 13 C-14.16855469 12.39671875 -13.33710938 11.7934375 -12.48046875 11.171875 C-11.3825894 10.36488676 -10.28494551 9.55757813 -9.1875 8.75 C-8.36668945 8.15638672 -8.36668945 8.15638672 -7.52929688 7.55078125 C-4.46383522 5.28419748 -2.22990467 3.06699822 0 0 Z " fill="#6A513E" transform="translate(362,208)"/>
<path d="M0 0 C0.33 0 0.66 0 1 0 C1 5.28 1 10.56 1 16 C-0.32 16 -1.64 16 -3 16 C-2.88628503 13.70774565 -2.75869036 11.41617612 -2.625 9.125 C-2.55539063 7.84882813 -2.48578125 6.57265625 -2.4140625 5.2578125 C-2 2 -2 2 0 0 Z " fill="#554947" transform="translate(193,358)"/>
<path d="M0 0 C0.33 0.99 0.66 1.98 1 3 C-0.25541557 5.51083114 -1.50063488 5.87125446 -4 7 C-3.01 7.66 -2.02 8.32 -1 9 C-4.63 9 -8.26 9 -12 9 C-8.32442148 4.99027798 -4.81033104 2.54664585 0 0 Z " fill="#E6B030" transform="translate(285,217)"/>
<path d="M0 0 C1.35055201 2.70110402 1 5.00789006 1 8 C1.66 8.33 2.32 8.66 3 9 C-1.75 10 -1.75 10 -4 10 C-3.34 10.66 -2.68 11.32 -2 12 C-3.98 12 -5.96 12 -8 12 C-7.52584717 7.73262454 -5.00349628 5.85698427 -2 3 C-1.34 2.01 -0.68 1.02 0 0 Z " fill="#EEB327" transform="translate(272,176)"/>
<path d="M0 0 C0.33 0 0.66 0 1 0 C1.66 5.28 2.32 10.56 3 16 C4.96822886 14.03177114 4.66248381 10.65191291 5 8 C5.66 8 6.32 8 7 8 C6.85892253 9.45880109 6.71197585 10.91703551 6.5625 12.375 C6.48128906 13.18710937 6.40007812 13.99921875 6.31640625 14.8359375 C6 17 6 17 5 19 C3.35 19 1.7 19 0 19 C0 12.73 0 6.46 0 0 Z " fill="#B0ABAA" transform="translate(368,356)"/>
<path d="M0 0 C0.66 0 1.32 0 2 0 C-0.10824248 4.8489577 -3.32495302 7.60432916 -8 10 C-12.84753083 10.91948612 -16.6750065 10.63599688 -21.125 8.5 C-21.74375 8.005 -22.3625 7.51 -23 7 C-21.1875 6.375 -21.1875 6.375 -19 6 C-18.01 6.66 -17.02 7.32 -16 8 C-12.685385 8.43777934 -10.17185702 8.76437038 -7.28125 6.87890625 C-5.82495726 5.61892748 -4.40997477 4.31160443 -3 3 C-2.34 3 -1.68 3 -1 3 C-0.67 2.01 -0.34 1.02 0 0 Z " fill="#E7B02B" transform="translate(252,162)"/>
<path d="M0 0 C0.99 0 1.98 0 3 0 C3 5.61 3 11.22 3 17 C2.34 16.67 1.68 16.34 1 16 C1 14.68 1 13.36 1 12 C0.34 11.67 -0.32 11.34 -1 11 C-0.67 7.37 -0.34 3.74 0 0 Z " fill="#564A49" transform="translate(382,356)"/>
<path d="M0 0 C0.95190012 2.74993369 0.96516628 4.19352068 0.4375 7.125 C0.293125 8.07375 0.14875 9.0225 0 10 C2.35953094 12.35953094 3.77895617 12.49141413 7 13 C7.33 12.01 7.66 11.02 8 10 C8.33 10.66 8.66 11.32 9 12 C9.99 11.67 10.98 11.34 12 11 C12 11.66 12 12.32 12 13 C8.2794164 15.48038907 6.40203429 15.46337203 2 15 C-0.5 13.5 -0.5 13.5 -2 11 C-2.10158496 7.1163289 -1.2212275 3.66368249 0 0 Z " fill="#867E7D" transform="translate(443,299)"/>
<path d="M0 0 C0.66 0.33 1.32 0.66 2 1 C1.01 1.70125 0.02 2.4025 -1 3.125 C-3.69099605 5.32959535 -3.95971924 5.64418661 -4.375 9.3125 C-4.25125 10.199375 -4.1275 11.08625 -4 12 C-3.360625 12.28875 -2.72125 12.5775 -2.0625 12.875 C0 14 0 14 1 16 C-2.94139078 14.33248852 -5.7892812 11.77289351 -9 9 C-7.48328036 4.44984107 -3.83108947 2.49942736 0 0 Z " fill="#DAA937" transform="translate(256,199)"/>
<path d="M0 0 C0.66 0.33 1.32 0.66 2 1 C1.01 2.1446875 1.01 2.1446875 0 3.3125 C-2.29850538 5.84277939 -2.29850538 5.84277939 -2 9 C-2.5775 9.391875 -3.155 9.78375 -3.75 10.1875 C-7.01980784 12.82151187 -8.31215978 16.22031525 -10 20 C-10.89230848 17.54476612 -11.13873163 16.37340204 -10.21484375 13.88671875 C-7.23521956 8.75666242 -4.00730574 4.38007837 0 0 Z " fill="#DEAD35" transform="translate(238,134)"/>
<path d="M0 0 C4.46171506 1.57472296 9.79688514 3.59377029 12 8 C12.06996014 9.70702735 12.08440154 11.41668003 12.0625 13.125 C12.05347656 14.03507813 12.04445313 14.94515625 12.03515625 15.8828125 C12.02355469 16.58148438 12.01195312 17.28015625 12 18 C10.35 18.66 8.7 19.32 7 20 C7.495 19.278125 7.99 18.55625 8.5 17.8125 C10.51223134 14.06954524 10.51223134 14.06954524 10 10 C7.8705331 7.43328257 5.47073468 5.23265532 3 3 C1.99434083 2.00569138 0.9923375 1.00760423 0 0 Z " fill="#DBAC37" transform="translate(282,194)"/>
<path d="M0 0 C3.11197356 1.49835764 6.08835016 3.13977927 9 5 C9 5.33 9 5.66 9 6 C5.04 6 1.08 6 -3 6 C-2.67 4.68 -2.34 3.36 -2 2 C-1.34 2 -0.68 2 0 2 C0 1.34 0 0.68 0 0 Z " fill="#584B49" transform="translate(204,327)"/>
<path d="M0 0 C1.08667969 0.29197266 1.08667969 0.29197266 2.1953125 0.58984375 C2.74960937 0.74582031 3.30390625 0.90179688 3.875 1.0625 C2.875 3 2.875 3 0.875 5.0625 C-1.82424572 5.72799451 -4.33131637 5.87930763 -7.125 6.0625 C-6.75 3.125 -6.75 3.125 -6.125 0.0625 C-3.57797384 -1.21101308 -2.6967055 -0.73941925 0 0 Z " fill="#5A4945" transform="translate(277.125,229.9375)"/>
<path d="M0 0 C1.32 0.33 2.64 0.66 4 1 C2.69386058 4.91841827 1.16870152 7.32640809 -2 10 C-2.66 10 -3.32 10 -4 10 C-4.33 8.68 -4.66 7.36 -5 6 C-4.34 6 -3.68 6 -3 6 C-3 5.34 -3 4.68 -3 4 C-2.34 4 -1.68 4 -1 4 C-0.67 2.68 -0.34 1.36 0 0 Z " fill="#7A6D6D" transform="translate(367,211)"/>
<path d="M0 0 C0 3 0 3 -2.3125 5.5625 C-5.93218682 8.84547176 -7.84148006 10.26546435 -12.6875 10.125 C-13.89986328 10.09792969 -13.89986328 10.09792969 -15.13671875 10.0703125 C-16.05904297 10.03550781 -16.05904297 10.03550781 -17 10 C-17 9.34 -17 8.68 -17 8 C-15.2984375 7.9690625 -15.2984375 7.9690625 -13.5625 7.9375 C-7.85153702 7.28365093 -4.16960042 3.69665963 0 0 Z " fill="#C7942B" transform="translate(253,164)"/>
<path d="M0 0 C0.33 0 0.66 0 1 0 C1 6.27 1 12.54 1 19 C-0.98 19 -2.96 19 -5 19 C-5 17.35 -5 15.7 -5 14 C-4.01 13.67 -3.02 13.34 -2 13 C-1.34 14.32 -0.68 15.64 0 17 C0 11.39 0 5.78 0 0 Z " fill="#ABA4A4" transform="translate(385,356)"/>
<path d="M0 0 C0.99 0.33 1.98 0.66 3 1 C3.33 2.65 3.66 4.3 4 6 C3.01 6.33 2.02 6.66 1 7 C1.66 7.66 2.32 8.32 3 9 C1.35 9 -0.3 9 -2 9 C-2.6875 6.75 -2.6875 6.75 -3 4 C-1.5625 1.6875 -1.5625 1.6875 0 0 Z " fill="#706362" transform="translate(376,266)"/>
<path d="M0 0 C1.4540625 0.0309375 1.4540625 0.0309375 2.9375 0.0625 C0.29170684 2.70829316 -1.45039269 3.04004399 -5.15698242 3.17602539 C-7.01867065 3.16817017 -7.01867065 3.16817017 -8.91796875 3.16015625 C-9.91042351 3.15803383 -9.91042351 3.15803383 -10.92292786 3.15586853 C-13.03199828 3.15027996 -15.14096177 3.13772965 -17.25 3.125 C-18.68163909 3.11998352 -20.11327985 3.11542087 -21.54492188 3.11132812 C-25.05081588 3.1003143 -28.5566475 3.08305755 -32.0625 3.0625 C-32.0625 2.7325 -32.0625 2.4025 -32.0625 2.0625 C-31.21953369 2.03744385 -30.37656738 2.0123877 -29.50805664 1.98657227 C-26.39008326 1.89161845 -23.27228497 1.79237552 -20.15454102 1.69018555 C-18.80335853 1.64678777 -17.45211947 1.6051163 -16.10083008 1.56518555 C-14.16213299 1.50760048 -12.22363724 1.44335702 -10.28515625 1.37890625 C-9.11734619 1.34224854 -7.94953613 1.30559082 -6.74633789 1.26782227 C-3.46116775 1.01649614 -3.42920286 0.06998373 0 0 Z " fill="#A3804A" transform="translate(322.0625,229.9375)"/>
<path d="M0 0 C0.53367187 0.30035156 1.06734375 0.60070312 1.6171875 0.91015625 C5.35403995 2.6193068 9.31598032 3.26442122 13.3203125 4.12109375 C16 5 16 5 18 8 C11.38914524 7.51030705 6.05022986 5.66557258 0 3 C0 2.01 0 1.02 0 0 Z " fill="#B68E43" transform="translate(272,224)"/>
<path d="M0 0 C0.66 0.99 1.32 1.98 2 3 C0.625 5.5 0.625 5.5 -1 8 C-1.66 8 -2.32 8 -3 8 C-3 8.66 -3 9.32 -3 10 C-4.32 9.67 -5.64 9.34 -7 9 C-6.625 7.0625 -6.625 7.0625 -6 5 C-5.34 4.67 -4.68 4.34 -4 4 C-3.67 3.01 -3.34 2.02 -3 1 C-2.01 0.67 -1.02 0.34 0 0 Z " fill="#594844" transform="translate(367,207)"/>
<path d="M0 0 C2.5625 2.1875 2.5625 2.1875 5 5 C4.8125 7.8125 4.8125 7.8125 4 10 C2.68 9.67 1.36 9.34 0 9 C-0.87890625 2.84765625 -0.87890625 2.84765625 -1 1 C-0.67 0.67 -0.34 0.34 0 0 Z " fill="#5A4B4A" transform="translate(187,314)"/>
<path d="M0 0 C0.99 0.66 1.98 1.32 3 2 C2.67 3.98 2.34 5.96 2 8 C2.99 8 3.98 8 5 8 C5 9.65 5 11.3 5 13 C0.56620325 10.78310162 -1.46636932 8.22271781 -4 4 C-2.35 4 -0.7 4 1 4 C0.67 2.68 0.34 1.36 0 0 Z " fill="#766768" transform="translate(243,210)"/>
<path d="M0 0 C0.33 0 0.66 0 1 0 C1.08149592 3.02138567 1.14073421 6.04053905 1.1875 9.0625 C1.22520508 10.33383789 1.22520508 10.33383789 1.26367188 11.63085938 C1.32846972 17.2250736 0.57466587 21.01960959 -2 26 C-2.33 26 -2.66 26 -3 26 C-2.85691406 25.04996094 -2.71382813 24.09992188 -2.56640625 23.12109375 C-1.89881342 18.44794395 -1.41952741 13.75780407 -0.9375 9.0625 C-0.84662109 8.18787109 -0.75574219 7.31324219 -0.66210938 6.41210938 C-0.44020953 4.27486349 -0.21993728 2.13744873 0 0 Z " fill="#AF894A" transform="translate(268,144)"/>
<path d="M0 0 C2.38387171 0.42569138 3.80697306 0.83914422 5.6875 2.40625 C8.72580223 4.50021505 11.69490887 5.2328922 15.25 6.1875 C17.14492188 6.70376953 17.14492188 6.70376953 19.078125 7.23046875 C20.04234375 7.48441406 21.0065625 7.73835937 22 8 C22 8.33 22 8.66 22 9 C14.77880605 8.51858707 7.50603123 7.32694779 1 4 C0.15625 1.86328125 0.15625 1.86328125 0 0 Z " fill="#6D5238" transform="translate(268,224)"/>
<path d="M0 0 C0.66 0.33 1.32 0.66 2 1 C1.3125 3.4375 1.3125 3.4375 0 6 C-2.5 6.9375 -2.5 6.9375 -5 7 C-5.66 6.34 -6.32 5.68 -7 5 C-7.99 5 -8.98 5 -10 5 C-7.64031256 2.90250005 -6.45383006 2.03094296 -3.25 1.8125 C-2.13625 1.9053125 -2.13625 1.9053125 -1 2 C-0.67 1.34 -0.34 0.68 0 0 Z " fill="#62524E" transform="translate(254,114)"/>
<path d="M0 0 C0 3.38814541 -0.61619669 4.30216779 -2.4375 7.0625 C-4.33583247 9.96376589 -4.33583247 9.96376589 -6 13 C-6.99 13.33 -7.98 13.66 -9 14 C-9.33 14.66 -9.66 15.32 -10 16 C-10.66 15.67 -11.32 15.34 -12 15 C-10.75457942 13.24673802 -9.50345947 11.49752378 -8.25 9.75 C-7.55390625 8.77546875 -6.8578125 7.8009375 -6.140625 6.796875 C-4.23547701 4.30766704 -2.27315379 2.15028061 0 0 Z " fill="#8C817F" transform="translate(256,272)"/>
<path d="M0 0 C2.97 0 5.94 0 9 0 C9 1.65 9 3.3 9 5 C6.36 5 3.72 5 1 5 C1.66 4.67 2.32 4.34 3 4 C2.01 2.68 1.02 1.36 0 0 Z " fill="#897E7F" transform="translate(268,355)"/>
<path d="M0 0 C4.24124204 2.85634668 4.24124204 2.85634668 6 5 C6.125 8.625 6.125 8.625 5 12 C2.9375 13.9375 2.9375 13.9375 1 15 C0.67 13.68 0.34 12.36 0 11 C1.32 11 2.64 11 4 11 C4 9.02 4 7.04 4 5 C2.68 4.67 1.36 4.34 0 4 C0 2.68 0 1.36 0 0 Z " fill="#74522D" transform="translate(287,199)"/>
<path d="M0 0 C1.25541557 3.76624671 0.37061958 5.37188934 -1 9 C-1.66 9 -2.32 9 -3 9 C-3 9.66 -3 10.32 -3 11 C-3.99 11 -4.98 11 -6 11 C-5.67 10.2575 -5.34 9.515 -5 8.75 C-3.77217129 5.86116688 -3.77217129 5.86116688 -4 2 C-2.68 2 -1.36 2 0 2 C0 1.34 0 0.68 0 0 Z " fill="#584847" transform="translate(391,302)"/>
<path d="M0 0 C1.12894876 0.93274109 2.25300876 1.87140122 3.375 2.8125 C4.00148437 3.33457031 4.62796875 3.85664063 5.2734375 4.39453125 C7 6 7 6 9 9 C8.21625 8.979375 7.4325 8.95875 6.625 8.9375 C4.01885039 8.81315937 4.01885039 8.81315937 2 10 C0 8 0 8 -0.1953125 6.0546875 C-0.13020833 4.03645833 -0.06510417 2.01822917 0 0 Z " fill="#644C35" transform="translate(246,206)"/>
<path d="M0 0 C1.32 0 2.64 0 4 0 C4 0.66 4 1.32 4 2 C1.89980986 3.47309111 -0.17767729 4.81309635 -2.375 6.125 C-2.97828125 6.49753906 -3.5815625 6.87007812 -4.203125 7.25390625 C-8.72965316 10 -8.72965316 10 -11 10 C-10.67 9.01 -10.34 8.02 -10 7 C-9.01 7 -8.02 7 -7 7 C-7 6.34 -7 5.68 -7 5 C-6.21625 4.731875 -5.4325 4.46375 -4.625 4.1875 C-1.71885077 3.15185568 -1.71885077 3.15185568 0 0 Z " fill="#B28C47" transform="translate(252,181)"/>
<path d="M0 0 C1.65 0.33 3.3 0.66 5 1 C5 2.98 5 4.96 5 7 C4.34 7 3.68 7 3 7 C3 7.66 3 8.32 3 9 C2.01 8.67 1.02 8.34 0 8 C-1.22393475 5.04215769 -0.96516243 3.00272755 0 0 Z " fill="#574744" transform="translate(319,64)"/>
<path d="M0 0 C0.66 0.33 1.32 0.66 2 1 C1.67 1.99 1.34 2.98 1 4 C0.34 3.67 -0.32 3.34 -1 3 C-0.67 4.65 -0.34 6.3 0 8 C-1.32 7.34 -2.64 6.68 -4 6 C-4 8.31 -4 10.62 -4 13 C-4.66 12.67 -5.32 12.34 -6 12 C-6.375 8.8125 -6.375 8.8125 -6 5 C-4.18811972 2.8596502 -2.34198833 1.61011698 0 0 Z " fill="#8F8584" transform="translate(191,309)"/>
<path d="M0 0 C0.70511719 0.16371094 1.41023438 0.32742187 2.13671875 0.49609375 C5.09658688 1.01699824 7.81061273 1.09866732 10.8125 1.0625 C11.78832031 1.05347656 12.76414062 1.04445312 13.76953125 1.03515625 C14.50558594 1.02355469 15.24164063 1.01195312 16 1 C16 1.66 16 2.32 16 3 C13.55028376 4.22485812 11.85765539 4.16722808 9.125 4.1875 C7.82949219 4.20876953 7.82949219 4.20876953 6.5078125 4.23046875 C3.8758712 3.98859252 2.26019456 3.32983541 0 2 C0 1.34 0 0.68 0 0 Z " fill="#6A5033" transform="translate(256,215)"/>
<path d="M0 0 C0.92389881 3.44226816 1.31142059 6.41866323 1 10 C0.01 10.66 -0.98 11.32 -2 12 C-3.19232613 14.05003955 -3.19232613 14.05003955 -4 16 C-4.66 16 -5.32 16 -6 16 C-5.71382813 15.29488281 -5.42765625 14.58976563 -5.1328125 13.86328125 C-3.99523169 10.98794768 -2.92607644 8.09547814 -1.875 5.1875 C-1.34519531 3.72376953 -1.34519531 3.72376953 -0.8046875 2.23046875 C-0.53914063 1.49441406 -0.27359375 0.75835937 0 0 Z " fill="#6C513A" transform="translate(380,178)"/>
<path d="M0 0 C0.99 0.33 1.98 0.66 3 1 C3 3.31 3 5.62 3 8 C2.01 8.33 1.02 8.66 0 9 C-1.36623674 6.26752652 -1.128426 4.01801098 -1 1 C-0.67 0.67 -0.34 0.34 0 0 Z " fill="#554746" transform="translate(263,362)"/>
<path d="M0 0 C3.96 0 7.92 0 12 0 C12.33 1.65 12.66 3.3 13 5 C11.5625 6.8125 11.5625 6.8125 10 8 C9.34 7.67 8.68 7.34 8 7 C8.66 6.01 9.32 5.02 10 4 C6.99382731 0.99382731 4.17618402 1.40414684 0 1 C0 0.67 0 0.34 0 0 Z " fill="#B8B5B2" transform="translate(277,262)"/>
<path d="M0 0 C0.33 0 0.66 0 1 0 C2.0748291 6.27467799 1.88341198 10.90660831 0 17 C-1.07536348 13.77390955 -1.14375422 11.37822416 -1 8 C-0.67 7.34 -0.34 6.68 0 6 C-0.99 5.67 -1.98 5.34 -3 5 C-2.03114628 3.31503702 -1.03013277 1.64821244 0 0 Z " fill="#8E8686" transform="translate(390,118)"/>
<path d="M0 0 C0.33 0 0.66 0 1 0 C1.68829114 8.60363924 1.68829114 8.60363924 -0.875 12.5625 C-1.57625 13.366875 -2.2775 14.17125 -3 15 C-3.66 15 -4.32 15 -5 15 C-3.33333333 10 -1.66666667 5 0 0 Z " fill="#E5B035" transform="translate(278,161)"/>
<path d="M0 0 C0.66 0 1.32 0 2 0 C1.34 5.61 0.68 11.22 0 17 C-2.49729916 13.25405125 -2.2965629 11.44844343 -2 7 C-1.45980238 4.60170883 -0.76471055 2.34192605 0 0 Z " fill="#694F2F" transform="translate(225,150)"/>
<path d="M0 0 C2.475 0.495 2.475 0.495 5 1 C5.6875 3.3125 5.6875 3.3125 6 6 C5.01 6.99 4.02 7.98 3 9 C2.01 6.03 1.02 3.06 0 0 Z " fill="#645553" transform="translate(322,64)"/>
<path d="M0 0 C0.99 0.99 1.98 1.98 3 3 C-1.625 7.875 -1.625 7.875 -5 9 C-5 6 -5 6 -3.0625 3.9375 C-2.381875 3.298125 -1.70125 2.65875 -1 2 C-0.67 1.34 -0.34 0.68 0 0 Z " fill="#837878" transform="translate(224,322)"/>
<path d="M0 0 C0.33 0.99 0.66 1.98 1 3 C0.01 3 -0.98 3 -2 3 C-2 3.66 -2 4.32 -2 5 C-2.969375 5.12375 -3.93875 5.2475 -4.9375 5.375 C-6.4534375 5.684375 -6.4534375 5.684375 -8 6 C-8.33 6.66 -8.66 7.32 -9 8 C-9 7.01 -9 6.02 -9 5 C-7.35 4.67 -5.7 4.34 -4 4 C-4 3.34 -4 2.68 -4 2 C-4.66 1.67 -5.32 1.34 -6 1 C-3 0 -3 0 0 0 Z " fill="#5D4842" transform="translate(276,218)"/>
<path d="M0 0 C-3.97234814 3.0753663 -7.08323953 3.32551243 -11.9140625 3.30078125 C-14 3 -14 3 -17 1 C-15.80375 1.04125 -14.6075 1.0825 -13.375 1.125 C-8.54271369 1.15065816 -4.54187577 -1.51395859 0 0 Z " fill="#D0A23B" transform="translate(275,214)"/>
<path d="M0 0 C-0.43197635 4.7517398 -1.32769295 6.92000054 -5 10 C-5.33 8.02 -5.66 6.04 -6 4 C-5.34 3.67 -4.68 3.34 -4 3 C-4 2.34 -4 1.68 -4 1 C-2 0 -2 0 0 0 Z " fill="#776867" transform="translate(384,193)"/>
<path d="M0 0 C1.67542976 0.28604898 3.34385343 0.61781233 5 1 C4.67 1.99 4.34 2.98 4 4 C2.68 4 1.36 4 0 4 C0 4.66 0 5.32 0 6 C-0.66 6 -1.32 6 -2 6 C-1.125 1.125 -1.125 1.125 0 0 Z " fill="#8F8787" transform="translate(228,355)"/>
<path d="M0 0 C0.66 0.66 1.32 1.32 2 2 C0.35 4.31 -1.3 6.62 -3 9 C-5 6 -5 6 -4.875 3.9375 C-3.7413007 1.42716583 -2.51381062 0.97308798 0 0 Z " fill="#7C7070" transform="translate(265,279)"/>
<path d="M0 0 C0.721875 0.185625 1.44375 0.37125 2.1875 0.5625 C5.12826973 1.01995307 7.14103058 0.73516357 10 0 C6.98552165 2.57075841 4.64020229 3.52207066 0.75 4.1875 C-0.58804687 4.42533203 -0.58804687 4.42533203 -1.953125 4.66796875 C-2.96632813 4.83232422 -2.96632813 4.83232422 -4 5 C-3.34 4.67 -2.68 4.34 -2 4 C-0.86649466 1.98330173 -0.86649466 1.98330173 0 0 Z " fill="#998C8F" transform="translate(334,234)"/>
<path d="M0 0 C1.5 1.375 1.5 1.375 3 3 C3 3.66 3 4.32 3 5 C6.465 4.505 6.465 4.505 10 4 C10 4.66 10 5.32 10 6 C3.55192878 7.33827893 3.55192878 7.33827893 1.0625 5.8125 C0 4 0 4 0 0 Z " fill="#634A39" transform="translate(232,189)"/>
<path d="M0 0 C-0.33 1.98 -0.66 3.96 -1 6 C-1.66 6 -2.32 6 -3 6 C-3 6.66 -3 7.32 -3 8 C-3.66 8 -4.32 8 -5 8 C-5.66 6.68 -6.32 5.36 -7 4 C-5.68 3.67 -4.36 3.34 -3 3 C-3.33 2.34 -3.66 1.68 -4 1 C-2 0 -2 0 0 0 Z " fill="#574944" transform="translate(237,126)"/>
<path d="M0 0 C-0.33 0.99 -0.66 1.98 -1 3 C-1.99 3.33 -2.98 3.66 -4 4 C-5.32 2.68 -6.64 1.36 -8 0 C-4.71023192 -1.09658936 -3.28696233 -0.79953138 0 0 Z " fill="#7E7372" transform="translate(201,308)"/>
<path d="M0 0 C0.66 0 1.32 0 2 0 C2.6875 1.8125 2.6875 1.8125 3 4 C1.8125 5.75 1.8125 5.75 0 7 C-1.32 7 -2.64 7 -4 7 C-2.79618552 4.50638429 -1.54571278 2.31856917 0 0 Z " fill="#574946" transform="translate(257,272)"/>
<path d="M0 0 C0.66 1.65 1.32 3.3 2 5 C1.01 4.34 0.02 3.68 -1 3 C-3.29714187 2.97360171 -3.29714187 2.97360171 -5.6875 3.375 C-6.49574219 3.48585938 -7.30398437 3.59671875 -8.13671875 3.7109375 C-8.75160156 3.80632812 -9.36648437 3.90171875 -10 4 C-6.66064924 0.50886057 -4.84725717 -0.1275594 0 0 Z " fill="#D9AD38" transform="translate(260,123)"/>
<path d="M0 0 C0 1.65 0 3.3 0 5 C-0.66 4.67 -1.32 4.34 -2 4 C-2 3.34 -2 2.68 -2 2 C-4.64 2.66 -7.28 3.32 -10 4 C-10 3.01 -10 2.02 -10 1 C-3.375 -1.125 -3.375 -1.125 0 0 Z " fill="#745931" transform="translate(262,121)"/>
<path d="M0 0 C2.62187494 1.04874998 3.79371361 1.64931313 5.25 4.125 C5.4975 4.74375 5.745 5.3625 6 6 C5.01 6.66 4.02 7.32 3 8 C2.01 7.01 1.02 6.02 0 5 C0.33 4.01 0.66 3.02 1 2 C0.67 1.34 0.34 0.68 0 0 Z " fill="#554644" transform="translate(354,85)"/>
<path d="M0 0 C1.4606285 2.64738916 2 3.89448334 2 7 C1.360625 7.28875 0.72125 7.5775 0.0625 7.875 C-2.15206079 8.82823451 -2.15206079 8.82823451 -3 11 C-2.32829194 7.1936543 -1.27253436 3.64793184 0 0 Z " fill="#887E7D" transform="translate(380,279)"/>
<path d="M0 0 C0.99 0.33 1.98 0.66 3 1 C3 4 3 4 1.5 5.6875 C1.005 6.120625 0.51 6.55375 0 7 C-1.98 6.34 -3.96 5.68 -6 5 C-5.38125 4.731875 -4.7625 4.46375 -4.125 4.1875 C-1.7004767 3.04443152 -1.7004767 3.04443152 0 0 Z " fill="#776967" transform="translate(270,229)"/>
<path d="M0 0 C1.27450447 0.59638333 2.54446877 1.20247416 3.8125 1.8125 C4.52019531 2.14894531 5.22789062 2.48539063 5.95703125 2.83203125 C8.03804859 4.02175244 9.46936202 5.16033731 11 7 C11 7.66 11 8.32 11 9 C10.01 9.33 9.02 9.66 8 10 C7.979375 9.4225 7.95875 8.845 7.9375 8.25 C6.4233745 4.61609879 3.44043825 3.75149584 0 2 C0 1.34 0 0.68 0 0 Z " fill="#DAAA3B" transform="translate(272,199)"/>
<path d="M0 0 C0 0.66 0 1.32 0 2 C-0.99 2 -1.98 2 -3 2 C-3.226875 2.639375 -3.45375 3.27875 -3.6875 3.9375 C-5 6 -5 6 -7.625 6.75 C-8.800625 6.87375 -8.800625 6.87375 -10 7 C-3.18421053 0 -3.18421053 0 0 0 Z " fill="#D9AB34" transform="translate(250,127)"/>
<path d="M0 0 C2.01136276 2.55991624 3.62845496 5.04590299 5 8 C2.03 7.505 2.03 7.505 -1 7 C-1.04254356 5.00045254 -1.04080783 2.99958364 -1 1 C-0.67 0.67 -0.34 0.34 0 0 Z " fill="#807070" transform="translate(366,122)"/>
<path d="M0 0 C0.66 0 1.32 0 2 0 C2 1.98 2 3.96 2 6 C4.31 6 6.62 6 9 6 C9 6.33 9 6.66 9 7 C6.03 7 3.06 7 0 7 C-1.04449911 3.86650268 -0.93423645 3.01031744 0 0 Z " fill="#5C4F4E" transform="translate(412,357)"/>
<path d="M0 0 C0.33 0.99 0.66 1.98 1 3 C2.98 2.67 4.96 2.34 7 2 C6.01 3.485 6.01 3.485 5 5 C4.34 5 3.68 5 3 5 C3.33 6.32 3.66 7.64 4 9 C1.47740939 7.02579865 1.0070192 6.03254358 0.3125 2.8125 C0.209375 1.884375 0.10625 0.95625 0 0 Z " fill="#968787" transform="translate(277,280)"/>
<path d="M0 0 C0.66 0 1.32 0 2 0 C0.48328036 4.55015893 -3.16891053 6.50057264 -7 9 C-7.66 8.67 -8.32 8.34 -9 8 C-3.25 3 -3.25 3 -1 3 C-0.67 2.01 -0.34 1.02 0 0 Z " fill="#F0B72E" transform="translate(252,162)"/>
<path d="M0 0 C0.66 0.33 1.32 0.66 2 1 C2.625 3.0625 2.625 3.0625 3 5 C1.35 4.67 -0.3 4.34 -2 4 C-2.33 4.66 -2.66 5.32 -3 6 C-3 4.35 -3 2.7 -3 1 C-2.01 0.67 -1.02 0.34 0 0 Z " fill="#615050" transform="translate(395,306)"/>
<path d="M0 0 C0.66 0 1.32 0 2 0 C1.67 1.98 1.34 3.96 1 6 C-0.65 5.67 -2.3 5.34 -4 5 C-3.67 3.68 -3.34 2.36 -3 1 C-2.34 1.33 -1.68 1.66 -1 2 C-0.67 1.34 -0.34 0.68 0 0 Z " fill="#6F625F" transform="translate(406,295)"/>
<path d="M0 0 C4.31392226 0.4793247 6.16569547 1.7457985 9 5 C6.36 5 3.72 5 1 5 C1.33 3.68 1.66 2.36 2 1 C1.34 0.67 0.68 0.34 0 0 Z " fill="#948987" transform="translate(410,264)"/>
<path d="M0 0 C0.99 0.33 1.98 0.66 3 1 C3.33 2.98 3.66 4.96 4 7 C2.68 6.67 1.36 6.34 0 6 C0 4.02 0 2.04 0 0 Z " fill="#7E7473" transform="translate(332,262)"/>
<path d="M0 0 C0.33 0.66 0.66 1.32 1 2 C0.0625 4.125 0.0625 4.125 -1 6 C-0.34 6.66 0.32 7.32 1 8 C-0.98 8 -2.96 8 -5 8 C-4.45773019 4.20411134 -2.79872437 2.52788007 0 0 Z " fill="#D8A738" transform="translate(269,180)"/>
<path d="M0 0 C0 3.3 0 6.6 0 10 C-0.33 10 -0.66 10 -1 10 C-1.144375 9.05125 -1.28875 8.1025 -1.4375 7.125 C-1.82935399 4.1065506 -1.82935399 4.1065506 -3 2 C-3.99 1.67 -4.98 1.34 -6 1 C-4 0 -4 0 0 0 Z " fill="#635B58" transform="translate(278,364)"/>
<path d="M0 0 C0.66 0.99 1.32 1.98 2 3 C1.125 6.1875 1.125 6.1875 0 9 C0.66 9.33 1.32 9.66 2 10 C1.67 10.66 1.34 11.32 1 12 C0.01 11.67 -0.98 11.34 -2 11 C-1.34 7.37 -0.68 3.74 0 0 Z " fill="#544745" transform="translate(444,298)"/>
<path d="M0 0 C0 0.33 0 0.66 0 1 C-1.65 1 -3.3 1 -5 1 C-5.0825 1.61875 -5.165 2.2375 -5.25 2.875 C-6 5 -6 5 -8.0625 6.25 C-9.0215625 6.62125 -9.0215625 6.62125 -10 7 C-10 4 -10 4 -8.375 1.8125 C-5.39500988 -0.46170299 -3.66075376 -0.3327958 0 0 Z " fill="#644C38" transform="translate(257,121)"/>
<path d="M0 0 C0.99 0 1.98 0 3 0 C3.33 1.65 3.66 3.3 4 5 C1.03 4.01 -1.94 3.02 -5 2 C-4.01 1.67 -3.02 1.34 -2 1 C-1.34 1.33 -0.68 1.66 0 2 C0 1.34 0 0.68 0 0 Z " fill="#948A88" transform="translate(322,71)"/>
<path d="M0 0 C0.66 0.33 1.32 0.66 2 1 C1.34 3.97 0.68 6.94 0 10 C-0.33 10 -0.66 10 -1 10 C-1.66 7.36 -2.32 4.72 -3 2 C-2.01 2 -1.02 2 0 2 C0 1.34 0 0.68 0 0 Z " fill="#685A59" transform="translate(388,311)"/>
<path d="M0 0 C0.33 0 0.66 0 1 0 C1.38873828 1.95565258 1.76060833 3.91466504 2.125 5.875 C2.33382812 6.96554687 2.54265625 8.05609375 2.7578125 9.1796875 C2.83773437 10.11039062 2.91765625 11.04109375 3 12 C2.34 12.66 1.68 13.32 1 14 C-0.04976964 10.85069107 -0.10131595 8.61185544 -0.0625 5.3125 C-0.05347656 4.31863281 -0.04445312 3.32476562 -0.03515625 2.30078125 C-0.02355469 1.54152344 -0.01195312 0.78226562 0 0 Z " fill="#999190" transform="translate(192,279)"/>
<path d="M0 0 C0.66 0.33 1.32 0.66 2 1 C2 2.65 2 4.3 2 6 C0.68 6 -0.64 6 -2 6 C-2 4.68 -2 3.36 -2 2 C-1.34 2 -0.68 2 0 2 C0 1.34 0 0.68 0 0 Z " fill="#5C5452" transform="translate(192,368)"/>
<path d="M0 0 C0.99 0.33 1.98 0.66 3 1 C3 1.66 3 2.32 3 3 C2.34 3 1.68 3 1 3 C1 3.99 1 4.98 1 6 C0.01 6 -0.98 6 -2 6 C-2 4.68 -2 3.36 -2 2 C-1.34 2 -0.68 2 0 2 C0 1.34 0 0.68 0 0 Z " fill="#594A4A" transform="translate(228,359)"/>
<path d="M0 0 C0.66 0.33 1.32 0.66 2 1 C2 4.11257569 1.82638376 6.10765685 1 9 C0.34 9 -0.32 9 -1 9 C-1.09765625 2.84765625 -1.09765625 2.84765625 -1 1 C-0.67 0.67 -0.34 0.34 0 0 Z " fill="#544645" transform="translate(194,277)"/>
<path d="M0 0 C1 2 1 2 0.3125 4.5 C-1.15567038 7.29651501 -2.09303901 7.93411431 -5 9 C-3.7508258 5.54074837 -2.32472205 2.85306797 0 0 Z " fill="#938988" transform="translate(348,275)"/>
<path d="M0 0 C0.99 0.99 1.98 1.98 3 3 C2.34 3 1.68 3 1 3 C-0.63676257 4.9600281 -0.63676257 4.9600281 -2 7 C-2.66 5.68 -3.32 4.36 -4 3 C-2.68 2.01 -1.36 1.02 0 0 Z " fill="#554543" transform="translate(400,274)"/>
<path d="M0 0 C-0.66 1.32 -1.32 2.64 -2 4 C-4.97 3.505 -4.97 3.505 -8 3 C-6.23110084 -0.53779831 -3.70375662 0 0 0 Z " fill="#8B7F7C" transform="translate(385,263)"/>
<path d="M0 0 C1.27875 -0.061875 2.5575 -0.12375 3.875 -0.1875 C4.95394531 -0.23970703 4.95394531 -0.23970703 6.0546875 -0.29296875 C6.69664062 -0.19628906 7.33859375 -0.09960938 8 0 C8.66 0.99 9.32 1.98 10 3 C2.25 2.25 2.25 2.25 0 0 Z " fill="#A68344" transform="translate(280,229)"/>
<path d="M0 0 C0.33 0 0.66 0 1 0 C0.88557539 1.60495567 0.75805306 3.20898119 0.625 4.8125 C0.55539062 5.70582031 0.48578125 6.59914062 0.4140625 7.51953125 C0 10 0 10 -2 13 C-2.05447047 11.58376784 -2.09300508 10.16691809 -2.125 8.75 C-2.14820313 7.96109375 -2.17140625 7.1721875 -2.1953125 6.359375 C-1.9828378 3.79268059 -1.28654105 2.2083933 0 0 Z " fill="#AAA3A2" transform="translate(392,167)"/>
<path d="M0 0 C2.31 0.33 4.62 0.66 7 1 C7.33 2.32 7.66 3.64 8 5 C4.5625 4.1875 4.5625 4.1875 1 3 C0.67 2.01 0.34 1.02 0 0 Z " fill="#564646" transform="translate(364,98)"/>
<path d="M0 0 C0 2.31 0 4.62 0 7 C-0.66 5.68 -1.32 4.36 -2 3 C-2.99 3.99 -3.98 4.98 -5 6 C-5.33 5.01 -5.66 4.02 -6 3 C-2.25 0 -2.25 0 0 0 Z " fill="#897A79" transform="translate(341,310)"/>
<path d="M0 0 C0.33 0.66 0.66 1.32 1 2 C1.66 2 2.32 2 3 2 C2.34 3.32 1.68 4.64 1 6 C0.34 6 -0.32 6 -1 6 C-1.33 6.66 -1.66 7.32 -2 8 C-1.125 2.25 -1.125 2.25 0 0 Z " fill="#908786" transform="translate(372,304)"/>
<path d="M0 0 C0.66 0.33 1.32 0.66 2 1 C-0.80804268 3.96404505 -3.18315774 6.44499019 -7 8 C-7 7.34 -7 6.68 -7 6 C-5.46875 4.4921875 -5.46875 4.4921875 -3.5 2.875 C-2.8503125 2.33617187 -2.200625 1.79734375 -1.53125 1.2421875 C-1.0259375 0.83226562 -0.520625 0.42234375 0 0 Z " fill="#908686" transform="translate(203,265)"/>
<path d="M0 0 C0.99 0 1.98 0 3 0 C1.68775452 3.93673644 0.08089673 6.22719294 -3 9 C-2.01 6.03 -1.02 3.06 0 0 Z " fill="#B0894A" transform="translate(371,192)"/>
<path d="M0 0 C1.32 0.66 2.64 1.32 4 2 C-0.75 6 -0.75 6 -3 6 C-3 5.01 -3 4.02 -3 3 C-2.01 3 -1.02 3 0 3 C0 2.01 0 1.02 0 0 Z " fill="#715130" transform="translate(252,198)"/>
<path d="M0 0 C2.64 0.66 5.28 1.32 8 2 C6.6875 3.5 6.6875 3.5 5 5 C4.01 5 3.02 5 2 5 C1.34 3.35 0.68 1.7 0 0 Z " fill="#A3804B" transform="translate(233,189)"/>
<path d="M0 0 C1.32 0.33 2.64 0.66 4 1 C3.67 1.99 3.34 2.98 3 4 C4.98 4 6.96 4 9 4 C9 4.33 9 4.66 9 5 C6.36 5 3.72 5 1 5 C0.67 3.35 0.34 1.7 0 0 Z " fill="#80603C" transform="translate(261,184)"/>
<path d="M0 0 C0.99 0.33 1.98 0.66 3 1 C1.68 3.64 0.36 6.28 -1 9 C-1.33 9 -1.66 9 -2 9 C-2 7.02 -2 5.04 -2 3 C-1.34 3 -0.68 3 0 3 C0 2.01 0 1.02 0 0 Z " fill="#70532D" transform="translate(229,141)"/>
<path d="M0 0 C1.32 0.33 2.64 0.66 4 1 C2.6875 3 2.6875 3 1 5 C0.01 5 -0.98 5 -2 5 C-2 4.01 -2 3.02 -2 2 C-1.34 2 -0.68 2 0 2 C0 1.34 0 0.68 0 0 Z " fill="#534544" transform="translate(414,299)"/>
<path d="M0 0 C1.4540625 0.0309375 1.4540625 0.0309375 2.9375 0.0625 C0.53986815 2.46013185 -0.39523498 2.40530586 -3.6875 2.6875 C-4.50476563 2.76226562 -5.32203125 2.83703125 -6.1640625 2.9140625 C-6.79054688 2.96304688 -7.41703125 3.01203125 -8.0625 3.0625 C-7.423125 2.753125 -6.78375 2.44375 -6.125 2.125 C-2.0825 0.0425 -2.0825 0.0425 0 0 Z " fill="#9C7946" transform="translate(322.0625,229.9375)"/>
<path d="M0 0 C0.66 0.33 1.32 0.66 2 1 C-0.31 2.65 -2.62 4.3 -5 6 C-5.66 5.34 -6.32 4.68 -7 4 C-1.7265625 0.77734375 -1.7265625 0.77734375 0 0 Z " fill="#6B513B" transform="translate(345,222)"/>
<path d="M0 0 C1.32 0.33 2.64 0.66 4 1 C1.03 3.475 1.03 3.475 -2 6 C-2 4.68 -2 3.36 -2 2 C-1.34 2 -0.68 2 0 2 C0 1.34 0 0.68 0 0 Z " fill="#ECB42C" transform="translate(348,202)"/>
<path d="M0 0 C1.32 0 2.64 0 4 0 C4 0.66 4 1.32 4 2 C1.69 3.32 -0.62 4.64 -3 6 C-2 4 -1 2 0 0 Z " fill="#AB864C" transform="translate(252,181)"/>
</svg>
